<svg width="86" height="86" viewBox="0 0 86 86" fill="none" xmlns="http://www.w3.org/2000/svg">
<rect width="86" height="86" rx="43" fill="black" fill-opacity="0.04"/>
<path d="M26.1451 57.7579L38.7683 45.1348C41.6671 48.6351 43.5569 52.9887 44.0006 57.7579H26.1451ZM66.2242 57.7579H48.471C48.0032 51.7604 45.6159 46.2948 41.9315 41.9715L55.5672 28.3359C56.4274 27.4758 56.4274 26.043 55.5672 25.1829C54.7041 24.3199 53.2973 24.3272 52.4194 25.1777L52.4193 25.1777L52.4142 25.1829L19.1774 58.4196L19.1714 58.4256L19.1656 58.4318C18.8132 58.8112 18.5377 59.3804 18.5377 59.9962C18.5377 61.2198 19.5596 62.2124 20.7539 62.2124H66.2242C67.4366 62.2124 68.4623 61.2235 68.4623 59.9962C68.4623 58.7761 67.4441 57.7579 66.2242 57.7579Z" fill="black" fill-opacity="0.85" stroke="black" stroke-width="0.924528"/>
</svg>
