<svg width="86" height="86" viewBox="0 0 86 86" fill="none" xmlns="http://www.w3.org/2000/svg">
<rect width="86" height="86" rx="43" fill="black" fill-opacity="0.04"/>
<path d="M30.8223 10.0599C29.199 10.3529 27.5983 11.2435 26.5725 12.4046C25.9412 13.1148 25.1183 14.6254 25.0168 15.2566C24.9717 15.5836 25.0055 15.7188 25.1972 15.9105C25.6594 16.3727 26.3019 16.1472 26.5048 15.4708C26.9107 14.1068 28.1394 12.709 29.4921 12.0551C30.6532 11.5028 31.634 11.345 32.8402 11.5253C33.9787 11.6944 34.3056 11.6268 34.4071 11.221C34.5424 10.7024 34.3395 10.3642 33.7758 10.2064C33.122 10.0148 31.4987 9.93585 30.8223 10.0599Z" fill="black" stroke="black" stroke-width="2"/>
<path d="M32.0789 15.2618C30.9742 15.6563 30.1963 16.3552 29.7341 17.3698C29.441 18.0123 29.4523 18.2829 29.768 18.576C30.2752 19.0607 30.6923 18.8691 31.1658 17.9222C31.38 17.5163 31.6505 17.1894 31.9662 16.964C32.4171 16.6483 32.5411 16.6258 33.4542 16.6258C34.5815 16.6145 34.8069 16.5018 34.8069 15.9607C34.8069 15.5098 34.7055 15.3745 34.3222 15.2279C33.8826 15.0589 32.5862 15.0814 32.0789 15.2618Z" fill="black" stroke="black" stroke-width="2"/>
<path d="M36.1516 20.3484C35.0469 20.664 34.0887 21.4531 33.6716 22.3887C33.5701 22.648 32.5556 25.9961 31.417 29.8401L29.3653 36.8293L28.1591 38.0693C26.3442 39.9293 26.2428 40.1886 26.13 43.2548C26.0624 44.7654 25.9722 45.7348 25.8482 46.1857C25.5777 47.1439 24.8562 48.6545 24.3151 49.376L23.8529 49.9847L23.3231 49.4661C22.4438 48.5981 22.5114 48.553 19.558 51.5178C17.619 53.468 16.999 54.1556 16.999 54.3586C16.999 54.7644 33.9534 71.7188 34.3592 71.7188C34.5621 71.7188 35.2498 71.0987 37.2 69.1598C40.2549 66.1161 40.1647 66.3078 39.0149 65.1579C38.5527 64.6958 38.3047 64.3576 38.3611 64.3012C38.4287 64.2448 40.1535 63.0387 42.1939 61.6183C45.711 59.1721 46.0154 58.9466 47.7176 57.267L49.5212 55.4971L52.2831 56.3088C54.718 57.0189 55.1576 57.1091 56.0031 57.1204C56.8147 57.1204 57.0627 57.0753 57.5926 56.8273C58.3253 56.4779 59.0468 55.8128 59.385 55.1589C59.5991 54.7193 65.8218 33.019 66.0585 31.8467C66.1938 31.1477 66.0359 30.1106 65.6752 29.4117C65.3708 28.8143 64.5479 28.0026 63.973 27.7546C63.5672 27.5743 57.3446 25.7931 41.5175 21.3065C37.7523 20.2469 37.0083 20.1116 36.1516 20.3484ZM38.8684 22.1069C40.176 22.4789 40.3902 22.5691 40.3564 22.7495C40.3113 22.9637 36.7716 35.2285 36.6702 35.5216C36.6251 35.6231 36.4785 35.5442 36.1516 35.2511C35.464 34.6311 34.7876 34.3718 33.7392 34.3154C33.0177 34.2816 32.7134 34.3154 32.2286 34.5071C31.8905 34.6311 31.5974 34.7212 31.5748 34.71C31.5185 34.6423 34.889 23.2906 35.0807 22.9298C35.4076 22.2873 36.3658 21.7011 37.1211 21.6786C37.2451 21.6673 38.0342 21.8589 38.8684 22.1069ZM52.4747 25.951C58.1675 27.5743 62.9697 28.9495 63.1501 29.0172C64.0068 29.3554 64.6156 30.2685 64.6043 31.1928C64.6043 31.5761 63.6123 35.2285 61.4253 42.9053C59.6781 49.0378 58.1675 54.2346 58.066 54.4375C57.7278 55.1477 56.7697 55.7226 55.9355 55.7C55.7551 55.7 54.5038 55.3844 53.1623 55.0011L50.7049 54.3022L53.5907 51.4276C55.1689 49.8494 56.6006 48.3389 56.7584 48.0796C57.3107 47.1327 57.2206 45.701 56.5442 44.7654C56.1947 44.2919 55.3042 43.6493 54.9773 43.6493C54.7856 43.6493 54.7969 43.6043 55.0111 43.1195C55.338 42.3868 55.338 41.2933 55.0224 40.5831C54.718 39.918 53.9627 39.174 53.3991 39.0049C52.9031 38.8584 52.8805 38.8133 53.1511 38.3173C53.2863 38.0693 53.3427 37.686 53.3427 37.1111C53.3427 36.3896 53.2976 36.1754 53.0158 35.6569C52.486 34.6987 51.5052 34.0674 50.547 34.0674C50.2089 34.0674 50.1976 34.0561 50.175 33.5038C50.1074 31.8805 48.811 30.663 47.1539 30.6405C45.8801 30.6292 45.8801 30.6292 42.1375 34.3605L38.688 37.7875L38.2596 37.3478L37.8313 36.9082L39.8378 29.9641C41.1342 25.4662 41.9008 23.02 41.9909 23.02C42.0699 23.02 46.7932 24.3389 52.4747 25.951ZM47.9881 32.3765C48.3939 32.5907 48.6757 33.1656 48.6757 33.7743V34.338L45.5193 37.5056C42.1488 40.8875 42.0699 40.9889 42.5884 41.5075C43.107 42.0261 43.231 41.9359 46.3648 38.7907C47.9768 37.1675 49.4536 35.7809 49.6565 35.6907C50.9303 35.1383 52.2718 36.2882 51.8434 37.5845C51.7645 37.8438 50.7725 38.9035 48.7321 40.9439C45.9477 43.7283 45.7448 43.9537 45.7448 44.3257C45.7448 44.833 45.9139 45.0021 46.4212 45.0021C46.7932 45.0021 46.9848 44.833 49.0139 42.7926C50.2201 41.5864 51.3474 40.5155 51.5165 40.4253C52.7002 39.8053 54.0867 40.9551 53.726 42.2628C53.6358 42.601 53.1172 43.1872 51.3136 45.0134C48.8561 47.4821 48.7434 47.6625 49.2394 48.1585C49.7016 48.6207 49.9383 48.4854 51.6969 46.7607C53.4329 45.0697 53.7034 44.9006 54.4362 45.0585C54.8984 45.1599 55.5296 45.8137 55.6198 46.2872C55.6536 46.5014 55.6311 46.8508 55.5635 47.0537C55.3831 47.6174 45.339 57.5939 44.0539 58.4957C43.524 58.8564 41.7542 60.0964 40.1309 61.235L37.1549 63.2979L31.0337 57.1768L24.9126 51.0556L25.3522 50.5032C25.882 49.8269 26.5246 48.6996 26.829 47.8992C27.37 46.5126 27.4941 45.7912 27.5842 43.4802C27.6519 41.7442 27.7195 41.1242 27.8773 40.7748C28.1141 40.2224 31.9694 36.2882 32.5781 35.9725C33.1079 35.702 33.9421 35.702 34.5283 35.9725C34.7876 36.0965 35.5654 36.7729 36.3207 37.5395L37.6509 38.8809L36.9971 39.3544C36.0501 40.0308 35.0356 40.3239 33.8745 40.2224C32.8261 40.1322 32.5556 40.2675 32.5556 40.8875C32.5556 41.5526 32.8487 41.6766 34.3479 41.6653C35.4865 41.6653 35.7571 41.6202 36.4222 41.361C36.8505 41.1919 37.3578 40.9551 37.5494 40.8199C37.7523 40.6846 39.7927 38.7006 42.0811 36.4234C45.1248 33.4023 46.3423 32.2638 46.5903 32.2074C46.7819 32.1623 46.9848 32.1172 47.0412 32.1059C47.1877 32.0608 47.6725 32.2074 47.9881 32.3765ZM36.2192 68.1114L34.4156 69.9151L26.6373 62.1368L18.859 54.3586L20.6627 52.5549L22.4664 50.7512L30.2446 58.5295L38.0229 66.3078L36.2192 68.1114Z" fill="black" stroke="black" stroke-width="2"/>
<path d="M64.18 58.0673C64.1011 58.0899 63.932 58.3717 63.7967 58.6761C63.3345 59.7583 62.32 60.3219 61.1025 60.1866C60.5389 60.119 60.4261 60.1415 60.2232 60.3444C59.9189 60.6488 59.9189 60.9419 60.2571 61.3365C60.5163 61.6408 60.5727 61.6521 61.5309 61.6521C62.3651 61.6521 62.6244 61.607 63.1542 61.359C63.9884 60.9645 64.6422 60.3557 64.9917 59.6455C65.3298 58.9917 65.3637 58.4281 65.1044 58.1688C64.9353 57.9997 64.4844 57.9433 64.18 58.0673Z" fill="black" stroke="black" stroke-width="2"/>
<path d="M68.49 61.0862C68.4111 61.1313 68.2082 61.5258 68.0278 61.9655C67.374 63.5888 66.3256 64.7837 64.8827 65.539C63.4736 66.283 61.7601 66.5197 60.351 66.1815C59.6408 66.0124 59.2463 66.1026 59.0772 66.4634C58.8855 66.8805 59.0546 67.2975 59.4943 67.4779C60.475 67.895 62.7183 67.8837 64.1612 67.4666C65.5816 67.0608 67.1598 65.9899 68.1405 64.7837C69.2227 63.431 69.8653 61.6386 69.4144 61.1877C69.2227 60.9847 68.7267 60.9397 68.49 61.0862Z" fill="black" stroke="black" stroke-width="2"/>
</svg>
