<svg width="86" height="86" viewBox="0 0 86 86" fill="none" xmlns="http://www.w3.org/2000/svg">
<rect width="86" height="86" rx="43" fill="black" fill-opacity="0.04"/>
<path d="M49.2482 64.5234L42.482 57.8165L45.8651 54.4928L49.2482 57.8165L57.6169 49.4478L61 52.7716L49.2482 64.5234ZM30.3741 66.482C29.7014 66.482 29.1376 66.2545 28.6826 65.7995C28.2275 65.3444 28 64.7806 28 64.1079V26.1223C28 25.4496 28.2275 24.8858 28.6826 24.4308C29.1376 23.9757 29.7014 23.7482 30.3741 23.7482H35.1223V19H44.6187V23.7482H49.3669C50.0396 23.7482 50.6034 23.9757 51.0585 24.4308C51.5135 24.8858 51.741 25.4496 51.741 26.1223V42.741C50.9101 42.741 50.0989 42.8103 49.3076 42.9487C48.5162 43.0872 47.7446 43.295 46.9928 43.5719V28.4964H32.7482V61.7338H38.3273C38.6439 62.6439 39.0297 63.4946 39.4847 64.286C39.9397 65.0773 40.4838 65.8094 41.1169 66.482H30.3741Z" fill="#1C1B1F"/>
</svg>
