<svg width="86" height="84" viewBox="0 0 86 84" fill="none" xmlns="http://www.w3.org/2000/svg">
<rect width="86" height="84" rx="42" fill="black" fill-opacity="0.04"/>
<path d="M40.5425 39.9771H45.4575V27.9281H40.5425V39.9771ZM43 49.148C43.6963 49.148 44.2799 48.9125 44.7509 48.4415C45.222 47.9705 45.4575 47.3869 45.4575 46.6906C45.4575 45.9943 45.222 45.4106 44.7509 44.9396C44.2799 44.4686 43.6963 44.2331 43 44.2331C42.3037 44.2331 41.7201 44.4686 41.249 44.9396C40.778 45.4106 40.5425 45.9943 40.5425 46.6906C40.5425 47.3869 40.778 47.9705 41.249 48.4415C41.7201 48.9125 42.3037 49.148 43 49.148ZM43 58.8594C47.7034 54.5563 51.1965 50.6748 53.4793 47.2151C55.7622 43.7553 56.9036 40.5911 56.9036 37.7223C56.9036 33.5274 55.5615 30.0925 52.8772 27.4178C50.1929 24.7431 46.9004 23.4057 42.9995 23.4057C39.0986 23.4057 35.8062 24.7431 33.1223 27.4178C30.4384 30.0925 29.0964 33.5274 29.0964 37.7223C29.0964 40.5911 30.2378 43.753 32.5207 47.2081C34.8035 50.6631 38.2966 54.5469 43 58.8594ZM43 65.9298C36.5572 60.4812 31.7399 55.4487 28.5483 50.8324C25.3566 46.2162 23.7607 41.8461 23.7607 37.7222C23.7607 31.7307 25.6947 26.9575 29.5626 23.4025C33.4305 19.8475 37.9096 18.07 43 18.0701C48.0904 18.0701 52.5695 19.8476 56.4374 23.4025C60.3053 26.9575 62.2392 31.7308 62.2392 37.7223C62.2392 41.8461 60.6434 46.2162 57.4517 50.8324C54.26 55.4487 49.4428 60.4812 43 65.9298Z" fill="#1C1B1F"/>
</svg>
