<svg width="16" height="16" viewBox="0 0 16 16" fill="none" xmlns="http://www.w3.org/2000/svg">
<g id="ba-svg-apple">
<path id="Vector" d="M11.6781 8.78554C11.6846 8.27877 11.8192 7.78193 12.0694 7.3412C12.3195 6.90041 12.6771 6.53012 13.1088 6.26471C12.8346 5.87302 12.4728 5.55067 12.0521 5.32327C11.6315 5.09588 11.1636 4.96969 10.6857 4.95474C9.66619 4.84772 8.67782 5.56479 8.15827 5.56479C7.62874 5.56479 6.82884 4.96536 5.9675 4.98308C5.41036 5.00108 4.86739 5.16309 4.39147 5.45333C3.91556 5.74357 3.52296 6.15214 3.2519 6.63923C2.07775 8.6721 2.95356 11.6598 4.07831 13.303C4.64105 14.1077 5.29873 15.0065 6.1593 14.9746C7.00142 14.9397 7.31592 14.4376 8.33243 14.4376C9.33948 14.4376 9.63454 14.9746 10.5126 14.9544C11.4162 14.9397 11.9856 14.1461 12.5286 13.3339C12.9329 12.7605 13.244 12.1268 13.4504 11.4564C12.9255 11.2343 12.4774 10.8626 12.1623 10.3877C11.8471 9.91273 11.6787 9.35553 11.6781 8.78554Z" fill="black"/>
<path id="Vector_2" d="M10.0193 3.87485C10.5121 3.28339 10.7548 2.52316 10.696 1.75562C9.94327 1.83467 9.24799 2.19443 8.74864 2.7632C8.50448 3.04105 8.31748 3.36431 8.19832 3.71448C8.07922 4.06465 8.03024 4.43487 8.05429 4.80397C8.43075 4.80785 8.80323 4.72624 9.1436 4.5653C9.48403 4.40437 9.78342 4.16829 10.0193 3.87485Z" fill="black"/>
</g>
</svg>
