<svg width="15" height="16" viewBox="0 0 15 16" fill="none" xmlns="http://www.w3.org/2000/svg">
<g id="ba-svg-google" clip-path="url(#clip0_98_95)">
<path id="Vector" fill-rule="evenodd" clip-rule="evenodd" d="M1.28329 15.2716L7.68777 8.8854L9.94524 11.1362L2.33175 15.3574C2.04227 15.5179 1.68771 15.5155 1.40006 15.3507L1.28329 15.2716ZM7.04191 8.24136L0.936035 14.3296V2.15309L7.04191 8.24136ZM10.8575 5.7254L13.8405 7.37899C14.1336 7.54198 14.3154 7.84727 14.3154 8.17811C14.3154 8.50895 14.1336 8.81424 13.8405 8.97723L10.776 10.6758L8.33424 8.24136L10.8575 5.7254ZM1.21579 1.14356C1.27052 1.09065 1.33194 1.04443 1.40006 1.00551C1.68771 0.840697 2.04227 0.838264 2.33175 0.998817L10.0267 5.26503L7.68777 7.59732L1.21579 1.14356Z" fill="black"/>
</g>
<defs>
<clipPath id="clip0_98_95">
<rect width="14.5957" height="14.5957" fill="white" transform="translate(0.327148 0.880371)"/>
</clipPath>
</defs>
</svg>
