<svg width="20" height="21" viewBox="0 0 20 21" fill="none" xmlns="http://www.w3.org/2000/svg">
<g id="image" clip-path="url(#clip0_11_262)">
<path id="Vector" d="M9.63014 16.0796C9.98014 16.0796 10.2761 15.9586 10.5181 15.7166C10.7591 15.4756 10.8801 15.1796 10.8801 14.8296C10.8801 14.4796 10.7601 14.1836 10.5181 13.9426C10.4028 13.8246 10.2644 13.7316 10.1117 13.6691C9.95899 13.6067 9.7951 13.5762 9.63014 13.5796C9.28014 13.5796 8.98414 13.7006 8.74214 13.9426C8.6244 14.0578 8.53154 14.196 8.46928 14.3486C8.40702 14.5011 8.37668 14.6648 8.38014 14.8296C8.38014 15.1796 8.50014 15.4756 8.74214 15.7166C8.98414 15.9586 9.28014 16.0796 9.63014 16.0796ZM8.73014 12.2296H10.5801C10.5801 11.6796 10.6431 11.2466 10.7681 10.9296C10.8931 10.6126 11.2471 10.1796 11.8301 9.62955C12.2153 9.25488 12.5589 8.83982 12.8551 8.39155C13.1051 8.00055 13.2301 7.52955 13.2301 6.97955C13.2301 6.04655 12.8881 5.32955 12.2051 4.82955C11.5221 4.32955 10.7131 4.07955 9.78014 4.07955C8.83014 4.07955 8.06014 4.32955 7.46814 4.82955C6.87614 5.32955 6.46314 5.92955 6.23014 6.62955L7.88014 7.27955C7.96314 6.97955 8.15114 6.65455 8.44314 6.30455C8.73414 5.95455 9.18014 5.77955 9.78014 5.77955C10.3131 5.77955 10.7131 5.92555 10.9801 6.21655C11.2471 6.50855 11.3801 6.82955 11.3801 7.17955C11.3801 7.51255 11.2801 7.82555 11.0801 8.11655C10.8801 8.40855 10.6301 8.67955 10.3301 8.92955C9.59714 9.57955 9.14714 10.0716 8.98014 10.4046C8.81314 10.7376 8.73014 11.3466 8.73014 12.2296ZM9.68014 20.0796C8.33975 20.0882 7.01201 19.82 5.78014 19.2916C4.59519 18.7883 3.51748 18.0629 2.60514 17.1546C1.70514 16.2546 0.993137 15.1966 0.468137 13.9796C-0.0603068 12.7477 -0.328579 11.4199 -0.319863 10.0796C-0.319863 8.69655 -0.0568625 7.39655 0.468137 6.17955C0.971437 4.9946 1.69681 3.91689 2.60514 3.00455C3.50514 2.10455 4.56314 1.39155 5.78014 0.866552C7.01217 0.338754 8.33984 0.0708354 9.68014 0.0795517C11.0631 0.0795517 12.3631 0.341552 13.5801 0.866552C14.765 1.37043 15.8427 2.09612 16.7551 3.00455C17.6551 3.90455 18.3671 4.96255 18.8921 6.17955C19.4206 7.41142 19.6888 8.73916 19.6801 10.0796C19.6888 11.4199 19.4206 12.7477 18.8921 13.9796C18.3888 15.1645 17.6635 16.2422 16.7551 17.1546C15.8551 18.0546 14.7971 18.7666 13.5801 19.2916C12.3483 19.82 11.0205 20.0882 9.68014 20.0796ZM9.68014 18.0796C11.9131 18.0796 13.8051 17.3046 15.3551 15.7546C16.9051 14.2046 17.6801 12.3126 17.6801 10.0796C17.6801 7.84655 16.9051 5.95455 15.3551 4.40455C13.8051 2.85455 11.9131 2.07955 9.68014 2.07955C7.44714 2.07955 5.55514 2.85455 4.00514 4.40455C2.45514 5.95455 1.68014 7.84655 1.68014 10.0796C1.68014 12.3126 2.45514 14.2046 4.00514 15.7546C5.55514 17.3046 7.44714 18.0796 9.68014 18.0796Z" fill="black"/>
</g>
<defs>
<clipPath id="clip0_11_262">
<rect width="20" height="20" fill="white" transform="translate(-0.320068 0.0793457)"/>
</clipPath>
</defs>
</svg>
