<svg width="86" height="86" viewBox="0 0 86 86" fill="none" xmlns="http://www.w3.org/2000/svg">
<rect width="86" height="86" rx="43" fill="black" fill-opacity="0.04"/>
<path d="M40.7818 66.8686C35.9008 66.2933 31.8836 64.1851 28.7301 60.5439C25.5767 56.9028 24 52.4853 24 47.2916C24 43.308 25.5912 38.9707 28.7735 34.2796C31.9558 29.5885 36.7778 24.4953 43.2393 19C49.7007 24.4953 54.5227 29.5885 57.705 34.2796C60.8873 38.9707 62.4785 43.308 62.4785 47.2916V47.6523C62.4785 47.7679 62.4738 47.8882 62.4644 48.013H57.1288C57.1382 47.8882 57.1429 47.7679 57.1429 47.6523V47.2916C57.1429 44.5036 55.9791 41.3372 53.6517 37.7925C51.3242 34.2477 47.8534 30.345 43.2393 26.0844C38.6251 30.345 35.1543 34.2477 32.8268 37.7925C30.4994 41.3372 29.3356 44.5036 29.3356 47.2916C29.3356 51.0084 30.4021 54.1576 32.5349 56.7391C34.6678 59.3207 37.4168 60.8944 40.7818 61.4604V66.8686Z" fill="#1C1B1F"/>
<path d="M51.4807 59.8119V59.9119H51.5807H54.4141H54.5141V59.8119V50.541V50.441H54.4141H51.5807H51.4807V50.541V59.8119ZM47.4219 52.5741L47.3562 52.5091L47.2863 52.5695C46.3838 53.3478 45.6836 54.2991 45.1857 55.4221C44.6879 56.545 44.4391 57.7324 44.4391 58.9833C44.4391 60.1603 44.6639 61.2697 45.1139 62.3102C45.5632 63.3489 46.1758 64.2582 46.9517 65.0371C47.7276 65.8161 48.6341 66.4308 49.6702 66.8812C50.7082 67.3324 51.817 67.5577 52.9955 67.5577C54.1745 67.5577 55.2854 67.3329 56.3272 66.8828C57.3673 66.4335 58.2777 65.8188 59.0577 65.0388C59.8378 64.2587 60.4491 63.3479 60.8915 62.3074C61.3345 61.2655 61.5557 60.159 61.5557 58.989C61.5557 57.7322 61.3064 56.5345 60.8077 55.3967C60.3085 54.2577 59.5806 53.2802 58.6248 52.4649L58.5545 52.405L58.4892 52.4703L56.4892 54.4703L56.4137 54.5458L56.4939 54.6162C57.1648 55.2049 57.6697 55.8728 58.0106 56.62C58.3518 57.3679 58.5224 58.1556 58.5224 58.9839C58.5224 60.5086 57.9876 61.8113 56.9158 62.8972C55.8446 63.9825 54.5405 64.5244 52.9977 64.5244C51.4683 64.5244 50.1672 63.9827 49.089 62.897C48.0104 61.811 47.4724 60.5084 47.4724 58.9839C47.4724 58.1548 47.6457 57.37 47.9924 56.6284C48.3397 55.8854 48.815 55.2424 49.4185 54.6986L49.4972 54.6278L49.4219 54.5533L47.4219 52.5741Z" fill="#1C1B1F" stroke="black" stroke-width="0.2"/>
</svg>
