<svg width="86" height="86" viewBox="0 0 86 86" fill="none" xmlns="http://www.w3.org/2000/svg">
<rect width="86" height="86" rx="43" fill="black" fill-opacity="0.04"/>
<path d="M62.7707 66.5028L55.6481 59.3522C54.7083 59.9402 53.7122 60.4472 52.6598 60.8734C51.6073 61.2996 50.5135 61.6401 49.3782 61.895V56.8488C49.8507 56.6814 50.3157 56.514 50.7733 56.3466C51.2309 56.1792 51.6661 55.9774 52.0791 55.7411L44.6876 48.3215V61.092L32.302 48.7065H22.6403V33.6811H30.1734L19 22.4236L22.4237 19L66.2084 63.0651L62.7707 66.5028ZM62.6662 52.6055L59.1112 49.0226C59.7758 47.8202 60.2741 46.5568 60.6064 45.2324C60.9386 43.9081 61.1048 42.5424 61.1048 41.1352C61.1048 37.4702 60.0252 34.1938 57.8659 31.3059C55.7067 28.418 52.8775 26.4566 49.3782 25.4216V20.3753C54.2813 21.4792 58.2806 23.96 61.3763 27.8179C64.4719 31.6757 66.0198 36.1148 66.0198 41.1352C66.0198 43.2443 65.7294 45.2658 65.1485 47.1999C64.5677 49.1339 63.7403 50.9358 62.6662 52.6055ZM54.8234 44.7207L49.3782 39.2474V31.527C51.2528 32.4057 52.736 33.7166 53.828 35.4599C54.9199 37.2031 55.4659 39.1145 55.4659 41.1938C55.4659 41.8082 55.4123 42.4104 55.3052 43.0006C55.1981 43.5907 55.0376 44.1641 54.8234 44.7207ZM44.6876 34.5148L38.1131 27.8701L44.6876 21.2956V34.5148ZM39.352 48.1749V42.9299L35.4669 39.0168H27.976V43.3708H34.5479L39.352 48.1749Z" fill="#1C1B1F"/>
</svg>
