<svg width="86" height="86" viewBox="0 0 86 86" fill="none" xmlns="http://www.w3.org/2000/svg">
<rect width="86" height="86" rx="43" fill="black" fill-opacity="0.04"/>
<path d="M37.9208 35.8542L42.5708 28.2979L39.4708 23.1958C39.0833 22.5069 38.4913 22.1625 37.6948 22.1625C36.8983 22.1625 36.2957 22.5084 35.887 23.2001L30.8812 31.6563L37.9208 35.8542ZM57.9326 49.9333L53.3563 42.3125L60.525 38.1792L63.8188 43.6688C64.1632 44.2715 64.3677 44.9389 64.4323 45.6708C64.4969 46.4028 64.3569 47.0701 64.0125 47.6729C63.6681 48.4049 63.1514 48.9646 62.4625 49.3521C61.7736 49.7396 61.0349 49.9333 60.2465 49.9333H57.9326ZM52 64.4L43.7333 56.1333L52 47.8667V52H61.8167L58.82 57.9933C58.4411 58.6822 57.9244 59.2333 57.27 59.6467C56.6156 60.06 55.8922 60.2667 55.1 60.2667H52V64.4ZM31.9823 60.2667C31.2913 60.2667 30.666 60.0944 30.1062 59.75C29.5465 59.4056 29.1375 58.9339 28.8792 58.335C28.6208 57.7714 28.4917 57.1882 28.4917 56.5854C28.4917 55.9826 28.6467 55.422 28.9567 54.9035L30.7133 52H39.6V60.2667H31.9823ZM26.8771 54.3896L23.5187 47.6729C23.1743 47.0271 23.0236 46.349 23.0667 45.6385C23.1097 44.9281 23.3154 44.2715 23.6838 43.6688L24.4875 42.3125L21 40.1813L32.3021 37.3396L35.1437 48.7063L31.5917 46.5104L26.8771 54.3896ZM54.7771 36.6938L43.4621 33.8544L47.0271 31.7378L40.5688 21H47.8537C48.5771 21 49.2574 21.1797 49.8946 21.539C50.5318 21.8984 51.0399 22.386 51.4188 23.0021L54.1312 27.5229L57.6187 25.3271L54.7771 36.6938Z" fill="#1C1B1F"/>
</svg>
