<svg width="90" height="90" viewBox="0 0 90 90" fill="none" xmlns="http://www.w3.org/2000/svg">
<g id="Frame 9">
<path id="Vector" d="M50.9522 20.921C52.2119 20.8857 51.8923 22.4111 51.8931 23.3266L51.9004 33.165C51.9009 34.4769 51.9977 35.8834 51.7945 37.1783C51.2646 40.5554 48.5675 42.7511 45.5523 43.0055C45.4956 43.1447 45.5245 43.3731 45.5247 43.5302L45.5263 52.5191C45.5261 57.0828 45.46 59.6722 42.4139 63.4634C42.019 63.9549 42.085 64.1539 42.0842 64.7942L42.1007 75.791C43.682 76.048 45.6224 75.435 46.4624 77.7718L46.4892 77.8504C47.1652 79.7824 45.9402 81.9523 44.0507 82.1282L43.9794 82.1342C43.162 82.2115 42.3011 82.151 41.4793 82.1524C39.3016 82.156 36.8011 82.4382 36.0822 79.3453L36.0616 79.2544C35.9557 78.8101 35.9842 78.3123 35.9829 77.8546L35.9647 68.6994C35.6265 68.623 35.1987 68.6769 34.8469 68.6771L32.4092 68.6804C32.3428 69.174 32.3824 69.7365 32.3539 70.2393C32.2177 72.6435 31.0816 74.4558 29.3544 75.8368C30.7983 75.5729 32.3926 75.8907 33.1722 77.3828L33.2116 77.4603C33.7147 78.4347 33.706 79.603 33.1495 80.5628L33.1028 80.6413C32.1265 82.2999 30.5737 82.1576 28.9855 82.1548L13.7458 82.155C11.0287 82.1586 8.22404 82.4646 7.19959 78.7994L7.18043 78.7288C6.96333 77.9528 7.02707 77.0436 7.02627 76.2361L7.02212 72.1036C7.00582 71.7355 6.3277 70.9522 6.11221 70.6142C1.41062 63.2363 -0.555642 52.8794 0.882628 43.9682L0.983699 43.5565C2.7916 35.2952 8.99306 28.8927 16.9222 28.8861C17.5407 28.8856 18.1313 28.87 18.7367 29.0366L18.9887 29.1066C21.7794 29.9168 23.9005 32.9071 23.4162 36.1163C22.925 39.372 18.7689 40.3022 17.6487 37.2199L17.6128 37.1203C17.3994 36.5504 17.461 35.7977 17.451 35.1871C15.6632 34.924 13.6861 35.6734 12.1476 36.6218C4.45959 41.3598 5.53824 53.0064 8.03091 60.7522C8.32596 61.6691 8.60488 62.6152 9.04466 63.4636C10.1499 57.7028 15.326 51.8796 19.7679 49.0621C21.3844 48.037 23.1122 47.1832 24.7817 46.2642L29.406 43.5678C30.9023 42.6988 35.0369 40.819 35.5273 38.8824C35.6115 38.55 35.5078 38.0132 35.495 37.656L35.488 23.0968C35.4885 22.5165 35.4508 21.9028 35.5351 21.3291C36.3589 20.2144 37.6923 22.1257 38.2716 22.7174L40.3871 24.9231C40.8904 25.457 41.4029 25.9736 41.8262 26.5882C42.9325 26.4949 44.1357 26.4218 45.2389 26.6145C45.5525 26.6692 45.5454 26.6716 45.7587 26.401L49.0691 22.6891C49.6101 22.1156 50.2074 21.3109 50.8873 20.9542L50.9522 20.921Z" fill="black"/>
<path id="Vector_2" d="M69.04 82.0259L60.6263 82.0205C56.7074 82.0135 58.0147 77.4529 60.7854 76.312C61.8163 75.8876 63.2875 76.0693 64.4006 76.0762C64.5747 75.87 64.522 75.5338 64.5532 75.2811L66.2012 63.6962C66.2704 63.2705 66.2201 63.3088 65.9786 62.9405L65.1773 61.6967C62.9886 58.0376 61.3434 53.9128 61.8027 49.5758C62.0617 47.1289 63.0552 44.8137 63.4781 42.4007C63.7148 41.05 63.6343 39.6582 63.6352 38.2908L63.6326 29.8939C63.6283 29.0578 63.8531 28.908 63.1549 28.391C61.1299 26.8915 55.4357 24.7098 57.0851 21.2483C57.5648 20.2418 58.8521 19.6824 59.7764 19.1755L64.4617 16.4762C65.2432 16.0091 66.2652 15.5998 66.8836 15.1967L66.8847 10.1437C66.8858 8.88822 66.428 7.50679 67.5625 7.02811L67.7537 7.00042C68.6548 6.96622 69.728 9.05437 70.1765 9.66866L72.3597 12.682C75.024 16.3212 75.8839 17.4495 75.8912 21.8392C75.894 23.4785 75.8156 25.1632 75.9318 26.7983C76.3183 32.2342 79.5396 37.1492 82.0646 41.8029C85.6909 48.4868 89.5213 57.2485 89.5603 64.9534L89.5649 69.2965C89.5642 70.0888 89.6171 70.9267 89.5259 71.7132C88.8856 77.2396 84.5184 81.5417 78.9383 81.998C77.6915 82.1 76.3833 82.0272 75.1306 82.0281L69.04 82.0259Z" fill="black"/>
</g>
</svg>
