<svg width="269" height="68" viewBox="0 0 269 68" fill="none" xmlns="http://www.w3.org/2000/svg">
<path d="M127.754 32.6239C128.441 32.6239 128.785 33.6368 128.785 35.6627C128.785 38.6059 128.022 41.1286 126.495 43.2311C125.007 45.3334 123.06 46.3844 120.656 46.3844C118.252 46.3844 116.248 45.5435 114.645 43.8617C113.081 42.1417 112.298 39.9438 112.298 37.2682V29.1265C112.298 24.5778 111.154 22.3036 108.864 22.3036C106.841 22.3036 105.181 23.3355 103.883 25.3997C102.586 27.4638 101.937 30.923 101.937 35.7775V45.5817C101.556 46.1168 100.888 46.3844 99.9337 46.3844C98.9796 46.3844 98.2164 46.0978 97.6438 45.5244C97.0714 44.913 96.7852 44.0337 96.7852 42.887V14.1619C96.7852 9.19274 97.2623 5.59976 98.2164 3.38278C99.1703 1.12759 101.002 0 103.712 0C105.162 0 106.288 0.611577 107.089 1.83473C107.891 3.05789 108.291 4.79706 108.291 7.05232C108.291 11.1421 106.173 15.3085 101.937 19.5515V24.5969C103.54 21.7303 106.078 20.2967 109.551 20.2967C112.031 20.2967 113.997 21.0804 115.447 22.6475C116.935 24.2146 117.679 26.47 117.679 29.4132V37.5549C117.679 39.7335 118.023 41.3771 118.71 42.4856C119.397 43.5941 120.408 44.1484 121.744 44.1484C123.079 44.1484 124.263 43.2502 125.293 41.4537C126.362 39.6188 126.896 36.7903 126.896 32.9681C126.934 32.7386 127.22 32.6239 127.754 32.6239ZM101.937 16.7993C104.532 13.4357 105.83 10.1674 105.83 6.99484C105.83 3.82236 105.143 2.23608 103.769 2.23608C103.006 2.23608 102.51 3.11522 102.281 4.87352C102.052 6.63187 101.937 10.607 101.937 16.7993ZM151.014 33.312C151.815 33.312 152.216 33.9234 152.216 35.1466C152.216 37.9754 151.224 40.5553 149.239 42.887C147.293 45.2187 144.316 46.3844 140.309 46.3844C136.302 46.3844 133.077 45.3143 130.635 43.1737C128.231 40.9948 127.029 37.8225 127.029 33.6561C127.029 29.4513 128.097 26.1833 130.234 23.8516C132.371 21.4818 135.1 20.2967 138.42 20.2967C140.824 20.2967 142.58 20.9466 143.687 22.2461C144.793 23.5075 145.347 25.0174 145.347 26.7757C145.347 29.6426 144.145 32.0315 141.74 33.9428C139.374 35.8156 136.34 36.7522 132.638 36.7522C132.982 39.1983 133.86 41.0523 135.272 42.3137C136.722 43.5369 138.611 44.1484 140.939 44.1484C143.305 44.1484 145.423 43.2693 147.293 41.5109C149.201 39.7144 150.155 37.096 150.155 33.6561C150.193 33.4267 150.48 33.312 151.014 33.312ZM132.467 34.1147V34.6308C134.833 34.3248 136.875 33.5795 138.592 32.3945C140.347 31.2097 141.225 29.4513 141.225 27.1196C141.225 25.6291 140.901 24.5015 140.252 23.7369C139.603 22.9342 138.687 22.5328 137.504 22.5328C135.711 22.5328 134.413 23.4121 133.612 25.1702C132.848 26.9286 132.467 29.9102 132.467 34.1147ZM150.283 23.7942C150.283 22.6475 150.569 21.7875 151.141 21.2142C151.714 20.6025 152.439 20.2967 153.317 20.2967C154.194 20.2967 154.9 20.5643 155.435 21.0995V37.5549C155.435 42.1033 156.58 44.3778 158.869 44.3778C160.93 44.3778 162.609 43.2884 163.907 41.1096C165.243 38.931 165.91 35.2614 165.91 30.1012V23.7942C165.91 22.6475 166.197 21.7875 166.769 21.2142C167.342 20.6025 168.067 20.2967 168.944 20.2967C169.822 20.2967 170.528 20.5643 171.062 21.0995V50.226C171.52 50.1878 172.245 50.1688 173.238 50.1688C174.23 50.1688 174.726 50.5892 174.726 51.4301L174.383 52.2901C172.932 52.2901 171.826 52.3092 171.062 52.3473V55.2142C171.062 59.1512 170.165 62.2475 168.372 64.5026C166.616 66.7959 164.25 67.9428 161.274 67.9428C159.518 67.9428 157.953 67.4076 156.58 66.3373C155.244 65.3053 154.576 63.6617 154.576 61.4063C154.576 58.5015 155.606 56.1889 157.667 54.4687C159.728 52.7487 162.476 51.5446 165.91 50.8565V41.9123C164.308 44.8936 161.731 46.3844 158.182 46.3844C155.74 46.3844 153.813 45.601 152.401 44.0337C150.989 42.4666 150.283 40.2114 150.283 37.2682V23.7942ZM157.496 61.5785C157.496 62.9162 157.858 63.9293 158.583 64.6173C159.308 65.3435 160.186 65.7065 161.216 65.7065C162.247 65.7065 163.086 65.4007 163.735 64.7892C165.185 63.4897 165.91 59.5716 165.91 53.0354C160.3 54.2967 157.496 57.1445 157.496 61.5785ZM216.676 25.1702C217.935 27.3491 218.565 30.2922 218.565 34C218.565 37.6694 217.63 40.6509 215.76 42.9442C213.928 45.1996 211.524 46.3272 208.547 46.3272C206.792 46.3272 205.227 45.7155 203.853 44.4925C202.517 43.2693 201.849 41.3199 201.849 38.6441C201.849 32.3754 204.96 27.6932 211.18 24.5969C210.188 23.2208 208.795 22.5328 207.002 22.5328C205.246 22.5328 203.567 23.4121 201.964 25.1702C200.361 26.9286 199.56 29.566 199.56 33.0825V67.1973C199.178 67.7324 198.51 68 197.556 68C196.602 68 195.839 67.6943 195.266 67.0825C194.694 66.5092 194.408 65.6492 194.408 64.5026V21.0995C194.789 20.5643 195.457 20.2967 196.411 20.2967C197.365 20.2967 198.129 20.6025 198.701 21.2142C199.274 21.7875 199.56 22.6475 199.56 23.7942V25.0558C201.544 21.8832 204.158 20.2967 207.402 20.2967C210.684 20.2967 213.241 21.2142 215.073 23.0489C219.08 21.7494 223.564 21.0995 228.525 21.0995C229.556 21.0995 230.071 21.5199 230.071 22.3608L229.728 23.2208C225.11 23.2208 220.759 23.8707 216.676 25.1702ZM208.433 44.0911C211.562 44.0911 213.127 40.9758 213.127 34.7453C213.127 31.4582 212.86 28.878 212.325 27.0052C207.288 29.7571 204.769 33.6943 204.769 38.8163C204.769 40.4981 205.131 41.7976 205.857 42.7151C206.582 43.6323 207.44 44.0911 208.433 44.0911ZM249.867 33.312C250.668 33.312 251.069 33.9234 251.069 35.1466C251.069 37.9754 250.077 40.5553 248.093 42.887C246.147 45.2187 243.17 46.3844 239.163 46.3844C235.156 46.3844 231.931 45.3143 229.489 43.1737C227.084 40.9948 225.882 37.8225 225.882 33.6561C225.882 29.4513 226.951 26.1833 229.088 23.8516C231.225 21.4818 233.954 20.2967 237.274 20.2967C239.678 20.2967 241.434 20.9466 242.54 22.2461C243.647 23.5075 244.2 25.0174 244.2 26.7757C244.2 29.6426 242.998 32.0315 240.594 33.9428C238.228 35.8156 235.194 36.7522 231.492 36.7522C231.836 39.1983 232.713 41.0523 234.126 42.3137C235.576 43.5369 237.465 44.1484 239.793 44.1484C242.159 44.1484 244.277 43.2693 246.147 41.5109C248.056 39.7144 249.008 37.096 249.008 33.6561C249.048 33.4267 249.333 33.312 249.867 33.312ZM231.32 34.1147V34.6308C233.686 34.3248 235.728 33.5795 237.446 32.3945C239.201 31.2097 240.079 29.4513 240.079 27.1196C240.079 25.6291 239.754 24.5015 239.106 23.7369C238.457 22.9342 237.541 22.5328 236.358 22.5328C234.564 22.5328 233.267 23.4121 232.465 25.1702C231.702 26.9286 231.32 29.9102 231.32 34.1147ZM249.137 15.3085C249.137 14.1619 249.422 13.3019 249.995 12.7286C250.567 12.1168 251.292 11.8111 252.17 11.8111C253.048 11.8111 253.753 12.0787 254.287 12.6139V21.0995H262.131C262.933 21.0995 263.447 21.2524 263.677 21.5581C263.945 21.8641 264.078 22.3799 264.078 23.1061H254.287V37.5549C254.287 39.6572 254.881 41.2815 256.063 42.4284C257.285 43.575 258.678 44.1484 260.241 44.1484C262.609 44.1484 264.345 43.2693 265.451 41.5109C266.557 39.7526 267.111 36.905 267.111 32.9681C267.188 32.7386 267.474 32.6239 267.969 32.6239C268.657 32.6239 269.001 33.6368 269.001 35.6627C269.001 38.7588 268.219 41.3199 266.653 43.3456C265.127 45.3716 262.76 46.3844 259.554 46.3844C256.35 46.3844 253.812 45.5435 251.942 43.8617C250.072 42.1799 249.137 39.6763 249.137 36.3508V15.3085Z" fill="black"/>
<path d="M32.4311 22.2103C32.8789 22.2103 33.3162 22.0772 33.6885 21.8282C34.0606 21.579 34.3507 21.2252 34.5221 20.8109C34.6933 20.3967 34.7381 19.9408 34.6508 19.5012C34.5635 19.0615 34.348 18.6576 34.0314 18.3405C33.715 18.0236 33.3118 17.8078 32.8727 17.7203C32.4336 17.6329 31.9787 17.6777 31.5651 17.8492C31.1515 18.0209 30.798 18.3112 30.5494 18.6841C30.3008 19.0568 30.168 19.4951 30.168 19.9435C30.168 20.2411 30.2263 20.5359 30.3401 20.8109C30.4539 21.0859 30.6207 21.3359 30.8307 21.5463C31.0409 21.7569 31.2905 21.9239 31.5651 22.0378C31.8397 22.1516 32.1341 22.2103 32.4311 22.2103Z" fill="black"/>
<path d="M20.3686 22.2103C20.8162 22.2103 21.2538 22.0772 21.6259 21.8282C21.9981 21.579 22.2882 21.2252 22.4595 20.8109C22.6308 20.3967 22.6756 19.9408 22.5883 19.5012C22.501 19.0615 22.2854 18.6576 21.9689 18.3405C21.6524 18.0236 21.2491 17.8078 20.8101 17.7203C20.3711 17.6329 19.9161 17.6777 19.5026 17.8492C19.089 18.0209 18.7356 18.3112 18.4869 18.6841C18.2382 19.0568 18.1055 19.4951 18.1055 19.9435C18.1054 20.2411 18.1639 20.5359 18.2776 20.8109C18.3913 21.0859 18.558 21.3359 18.7682 21.5463C18.9784 21.7569 19.2279 21.9239 19.5025 22.0378C19.7771 22.1516 20.0714 22.2103 20.3686 22.2103Z" fill="black"/>
<path d="M62.517 27.3135C62.0695 27.3135 61.6319 27.4465 61.2599 27.6955C60.8876 27.9445 60.5976 28.2986 60.4262 28.7128C60.255 29.1269 60.21 29.5827 60.2973 30.0223C60.3847 30.462 60.6001 30.8659 60.9168 31.183C61.2331 31.4999 61.6363 31.716 62.0752 31.8034C62.5143 31.8909 62.9692 31.8461 63.3828 31.6746C63.7964 31.5031 64.1499 31.2128 64.3987 30.8399C64.6473 30.4673 64.7801 30.029 64.7801 29.5808C64.7801 28.9794 64.5419 28.4029 64.1175 27.9777C63.693 27.5526 63.1173 27.3137 62.517 27.3135Z" fill="black"/>
<path d="M50.4582 27.3135C50.0105 27.3137 49.5731 27.4465 49.2008 27.6958C48.8288 27.9448 48.5389 28.2988 48.3677 28.7131C48.1963 29.1273 48.1515 29.583 48.2388 30.0225C48.3264 30.4623 48.5418 30.8661 48.8582 31.183C49.1748 31.5002 49.5781 31.716 50.0169 31.8034C50.456 31.8909 50.9109 31.8461 51.3245 31.6746C51.7378 31.5031 52.0913 31.2125 52.3402 30.8399C52.5888 30.4673 52.7216 30.029 52.7216 29.5808C52.7219 29.2829 52.6632 28.9881 52.5494 28.7131C52.4359 28.4381 52.2692 28.1881 52.0589 27.9775C51.8487 27.7669 51.5991 27.5999 51.3245 27.4859C51.0496 27.3719 50.7553 27.3135 50.4582 27.3135Z" fill="black"/>
<path d="M56.4908 35.1523C54.5675 35.1523 53.0078 35.7135 53.0078 37.1268C53.0078 38.5403 54.8237 40.6076 56.4908 40.6076C58.1578 40.6076 59.9742 38.5432 59.9742 37.1268C59.9742 35.7106 58.415 35.1523 56.4908 35.1523Z" fill="black"/>
<path d="M72.2812 11.7308C71.9604 11.5866 71.6049 11.5383 71.2574 11.5918C70.9098 11.6453 70.5853 11.7982 70.3226 12.0323L63.0863 18.4747H49.8942L42.6569 12.0323C42.3942 11.7982 42.0697 11.6451 41.7221 11.5916C41.3746 11.538 41.0191 11.5861 40.6983 11.7306C40.3774 11.8747 40.1051 12.1086 39.9141 12.4045C39.7231 12.7 39.6215 13.0449 39.6217 13.397V36.5014C39.6296 38.0053 39.0449 39.4515 37.9943 40.5258C36.9437 41.6001 35.5122 42.2158 34.0109 42.2391C32.5096 42.2621 31.0601 41.691 29.9768 40.6494C28.8939 39.6081 28.2648 38.1805 28.2267 36.6773C30.5888 35.8584 32.666 33.6843 32.666 32.0902C32.666 30.0898 29.8608 28.4689 26.4001 28.4689C22.9392 28.4689 20.1347 30.0898 20.1347 32.0902C20.1347 33.6843 22.2117 35.8609 24.5734 36.6773C24.5353 38.1805 23.9063 39.6081 22.8232 40.6494C21.74 41.691 20.2903 42.2621 18.789 42.2391C17.2878 42.2158 15.8563 41.6001 14.8057 40.5258C13.7551 39.4515 13.1703 38.0053 13.1784 36.5014V15.1234C13.1784 12.929 11.3556 11.5705 9.66849 11.5705C5.18548 11.5705 0 19.3545 0 24.4329C0 28.7997 3.05599 30.6138 4.67246 30.9629C5.14516 31.065 5.63903 30.975 6.04543 30.7124C6.45181 30.4498 6.73742 30.0365 6.83944 29.563C6.94145 29.0896 6.85151 28.5948 6.5894 28.1877C6.32728 27.7806 5.91445 27.4947 5.44176 27.3924C5.18788 27.3366 3.6469 26.8049 3.6469 24.4329C3.6469 20.5517 7.82366 15.5025 9.5334 15.2347V36.5014C9.5334 41.6628 13.7255 45.8616 18.8788 45.8616C20.3432 45.8619 21.787 45.5167 23.0937 44.8547C24.4004 44.1927 25.5334 43.2321 26.4009 42.0505C27.2686 43.2321 28.4016 44.1924 29.7084 44.8545C31.015 45.5165 32.4589 45.8614 33.9231 45.8611C39.0765 45.8611 43.2692 41.6625 43.2692 36.5009V17.4645L47.9892 21.6666C48.3229 21.9639 48.7541 22.1279 49.2008 22.1279H63.7797C64.2262 22.1277 64.6574 21.9636 64.9913 21.6666L69.7104 17.4648V44.0351C69.7104 44.5195 69.9026 44.9843 70.2447 45.3267C70.5865 45.6694 71.0503 45.8616 71.5342 45.8616C72.0178 45.8616 72.4816 45.6694 72.8237 45.3267C73.1656 44.9843 73.3578 44.5195 73.3578 44.0351V13.397C73.3578 13.0449 73.2561 12.7003 73.0652 12.4047C72.8742 12.1091 72.6018 11.8752 72.2812 11.7308Z" fill="black"/>
</svg>
