<svg width="230" height="91" viewBox="0 0 230 91" fill="none" xmlns="http://www.w3.org/2000/svg">
<path id="Vector" d="M41.7911 43.4351C42.7041 43.4351 43.1604 44.7791 43.1604 47.4674C43.1604 51.3729 42.1462 54.7204 40.1174 57.5103C38.1392 60.2999 35.5524 61.6945 32.3571 61.6945C29.1615 61.6945 26.4988 60.5787 24.3684 58.347C22.289 56.0647 21.2491 53.1482 21.2491 49.5978V38.7942C21.2491 32.7584 19.7275 29.7406 16.6841 29.7406C13.9961 29.7406 11.7898 31.1099 10.0651 33.8489C8.34069 36.5879 7.47833 41.1781 7.47833 47.6196V60.6293C6.97138 61.3394 6.08371 61.6945 4.81565 61.6945C3.5476 61.6945 2.53335 61.3141 1.77226 60.5533C1.01149 59.7419 0.631104 58.5752 0.631104 57.0536V18.937C0.631104 12.3433 1.2653 7.57558 2.53335 4.63377C3.80108 1.64127 6.23593 0.14502 9.83691 0.14502C11.7645 0.14502 13.2607 0.956547 14.3259 2.5796C15.3908 4.20266 15.9234 6.51044 15.9234 9.50305C15.9234 14.93 13.1085 20.4586 7.47833 26.0887V32.7837C9.60875 28.9799 12.9816 27.0776 17.5971 27.0776C20.894 27.0776 23.5061 28.1175 25.4336 30.197C27.4118 32.2764 28.4007 35.2692 28.4007 39.1746V49.9782C28.4007 52.8691 28.8574 55.0501 29.7701 56.521C30.6831 57.9919 32.0274 58.7274 33.8024 58.7274C35.5777 58.7274 37.1502 57.5356 38.5195 55.1517C39.9398 52.7169 40.65 48.9636 40.65 43.8918C40.7006 43.5873 41.081 43.4351 41.7911 43.4351ZM7.47833 22.4367C10.9274 17.9734 12.6521 13.6366 12.6521 9.42677C12.6521 5.21707 11.7392 3.11218 9.91319 3.11218C8.89861 3.11218 8.23943 4.27874 7.935 6.6119C7.63056 8.94513 7.47833 14.2199 7.47833 22.4367ZM72.7044 44.3481C73.7693 44.3481 74.3019 45.1595 74.3019 46.7826C74.3019 50.5361 72.9832 53.9596 70.3458 57.0536C67.7591 60.1476 63.8027 61.6945 58.477 61.6945C53.1513 61.6945 48.8655 60.2746 45.6196 57.434C42.424 54.5428 40.8265 50.3333 40.8265 44.8047C40.8265 39.2252 42.2464 34.8888 45.087 31.7948C47.9272 28.6501 51.5538 27.0776 55.9665 27.0776C59.1618 27.0776 61.4951 27.94 62.966 29.6644C64.4369 31.3381 65.1724 33.3416 65.1724 35.6749C65.1724 39.479 63.5745 42.649 60.3793 45.1851C57.2346 47.6703 53.2023 48.913 48.2823 48.913C48.7386 52.1589 49.9054 54.6191 51.782 56.2929C53.7092 57.916 56.22 58.7274 59.3141 58.7274C62.4587 58.7274 65.2736 57.5609 67.7591 55.2276C70.2952 52.8438 71.5629 49.3693 71.5629 44.8047C71.6139 44.5003 71.9943 44.3481 72.7044 44.3481ZM48.0541 45.4133V46.0981C51.1988 45.6921 53.9124 44.7032 56.1947 43.1307C58.528 41.5585 59.6945 39.2252 59.6945 36.1312C59.6945 34.1533 59.2634 32.6571 58.4011 31.6426C57.5387 30.5773 56.3216 30.0447 54.7491 30.0447C52.3652 30.0447 50.6409 31.2115 49.5757 33.5445C48.5614 35.8777 48.0541 39.8341 48.0541 45.4133ZM71.7326 31.7185C71.7326 30.197 72.113 29.0558 72.8737 28.295C73.6345 27.4833 74.5981 27.0776 75.7649 27.0776C76.9314 27.0776 77.8697 27.4327 78.5798 28.1428V49.9782C78.5798 56.0137 80.1014 59.0318 83.1448 59.0318C85.8837 59.0318 88.1154 57.5862 89.8398 54.695C91.6151 51.8042 92.5024 46.9348 92.5024 40.0876V31.7185C92.5024 30.197 92.8832 29.0558 93.6439 28.295C94.4047 27.4833 95.3683 27.0776 96.5348 27.0776C97.7016 27.0776 98.6399 27.4327 99.35 28.1428V66.792C99.9585 66.7414 100.922 66.7161 102.241 66.7161C103.56 66.7161 104.219 67.274 104.219 68.3898L103.763 69.531C101.835 69.531 100.364 69.5563 99.35 69.6069V73.4111C99.35 78.6352 98.1579 82.7438 95.774 85.7363C93.4411 88.7793 90.2964 90.3012 86.34 90.3012C84.0068 90.3012 81.9273 89.591 80.1014 88.1708C78.3263 86.8015 77.4387 84.6204 77.4387 81.6276C77.4387 77.7732 78.808 74.7045 81.5469 72.4218C84.2859 70.1395 87.9378 68.5417 92.5024 67.6287V55.7603C90.3724 59.7163 86.9486 61.6945 82.2318 61.6945C78.9855 61.6945 76.4241 60.6549 74.5475 58.5752C72.6709 56.4957 71.7326 53.5033 71.7326 49.5978V31.7185ZM81.3188 81.8561C81.3188 83.6312 81.8004 84.9755 82.7644 85.8885C83.728 86.8521 84.8944 87.3337 86.2641 87.3337C87.6334 87.3337 88.7492 86.928 89.6116 86.1166C91.5388 84.3923 92.5024 79.1931 92.5024 70.5199C85.0467 72.1937 81.3188 75.9725 81.3188 81.8561ZM159.973 33.5445C161.646 36.4356 162.483 40.3411 162.483 45.2611C162.483 50.1301 161.241 54.0865 158.756 57.1296C156.321 60.1223 153.125 61.6186 149.169 61.6186C146.836 61.6186 144.757 60.8068 142.931 59.184C141.155 57.5609 140.268 54.9742 140.268 51.4235C140.268 43.1053 144.402 36.8923 152.669 32.7837C151.35 30.9577 149.499 30.0447 147.115 30.0447C144.782 30.0447 142.55 31.2115 140.42 33.5445C138.29 35.8777 137.225 39.3775 137.225 44.0436V89.3119C136.717 90.0221 135.83 90.3771 134.562 90.3771C133.294 90.3771 132.279 89.9714 131.519 89.1597C130.758 88.3989 130.377 87.2578 130.377 85.7363V28.1428C130.884 27.4327 131.772 27.0776 133.04 27.0776C134.308 27.0776 135.323 27.4833 136.083 28.295C136.844 29.0558 137.225 30.197 137.225 31.7185V33.3926C139.862 29.1827 143.336 27.0776 147.648 27.0776C152.01 27.0776 155.408 28.295 157.843 30.7296C163.168 29.0052 169.128 28.1428 175.722 28.1428C177.091 28.1428 177.776 28.7007 177.776 29.8166L177.319 30.9577C171.182 30.9577 165.4 31.8201 159.973 33.5445ZM149.017 58.6514C153.176 58.6514 155.256 54.5175 155.256 46.25C155.256 41.8882 154.901 38.4645 154.191 35.9793C147.496 39.6309 144.148 44.8554 144.148 51.652C144.148 53.8836 144.63 55.608 145.593 56.8255C146.557 58.0426 147.699 58.6514 149.017 58.6514ZM204.086 44.3481C205.151 44.3481 205.684 45.1595 205.684 46.7826C205.684 50.5361 204.365 53.9596 201.728 57.0536C199.141 60.1476 195.185 61.6945 189.86 61.6945C184.534 61.6945 180.248 60.2746 177.002 57.434C173.807 54.5428 172.209 50.3333 172.209 44.8047C172.209 39.2252 173.629 34.8888 176.469 31.7948C179.31 28.6501 182.936 27.0776 187.349 27.0776C190.544 27.0776 192.877 27.94 194.348 29.6644C195.819 31.3381 196.555 33.3416 196.555 35.6749C196.555 39.479 194.957 42.649 191.762 45.1851C188.617 47.6703 184.585 48.913 179.665 48.913C180.121 52.1589 181.288 54.6191 183.165 56.2929C185.092 57.916 187.603 58.7274 190.697 58.7274C193.841 58.7274 196.656 57.5609 199.141 55.2276C201.679 52.8438 202.945 49.3693 202.945 44.8047C202.997 44.5003 203.376 44.3481 204.086 44.3481ZM179.436 45.4133V46.0981C182.581 45.6921 185.295 44.7032 187.577 43.1307C189.91 41.5585 191.077 39.2252 191.077 36.1312C191.077 34.1533 190.646 32.6571 189.784 31.6426C188.921 30.5773 187.704 30.0447 186.132 30.0447C183.748 30.0447 182.023 31.2115 180.958 33.5445C179.944 35.8777 179.436 39.8341 179.436 45.4133ZM203.116 20.4586C203.116 18.937 203.494 17.7959 204.257 17.0351C205.016 16.2234 205.979 15.8177 207.146 15.8177C208.314 15.8177 209.251 16.1727 209.961 16.8829V28.1428H220.386C221.451 28.1428 222.135 28.3457 222.441 28.7514C222.796 29.1574 222.973 29.8419 222.973 30.8055H209.961V49.9782C209.961 52.7678 210.75 54.9232 212.321 56.4451C213.945 57.9666 215.796 58.7274 217.874 58.7274C221.02 58.7274 223.328 57.5609 224.798 55.2276C226.268 52.8944 227.004 49.1159 227.004 43.8918C227.106 43.5873 227.487 43.4351 228.145 43.4351C229.059 43.4351 229.516 44.7791 229.516 47.4674C229.516 51.5757 228.477 54.9742 226.396 57.6622C224.367 60.3505 221.221 61.6945 216.96 61.6945C212.703 61.6945 209.329 60.5787 206.844 58.347C204.359 56.1153 203.116 52.7931 203.116 48.3804V20.4586Z" fill="black"/>
</svg>
