<svg width="98" height="46" viewBox="0 0 98 46" fill="none" xmlns="http://www.w3.org/2000/svg">
<path id="Vector" d="M96.0661 0.71149C95.6397 0.520147 95.1672 0.456036 94.7053 0.52705C94.2434 0.598064 93.812 0.800913 93.4629 1.1116L83.8455 9.6602H66.3123L56.6936 1.1116C56.3444 0.800913 55.9131 0.597735 55.4512 0.526721C54.9893 0.455708 54.5168 0.51949 54.0904 0.711161C53.664 0.902504 53.302 1.21286 53.0482 1.60541C52.7944 1.99763 52.6593 2.45527 52.6596 2.92245V33.5806C52.6701 35.5763 51.8929 37.4953 50.4967 38.9208C49.1004 40.3463 47.1978 41.1633 45.2025 41.1942C43.2072 41.2248 41.2807 40.467 39.841 39.0849C38.4016 37.7031 37.5656 35.8087 37.515 33.8141C40.6544 32.7275 43.415 29.8426 43.415 27.7273C43.415 25.0728 39.6868 22.922 35.0873 22.922C30.4875 22.922 26.7602 25.0728 26.7602 27.7273C26.7602 29.8426 29.5207 32.7308 32.6596 33.8141C32.6088 35.8087 31.7729 37.7031 30.3333 39.0849C28.8938 40.467 26.967 41.2248 24.9717 41.1942C22.9765 41.1633 21.0739 40.3463 19.6776 38.9208C18.2813 37.4953 17.5041 35.5763 17.5148 33.5806V5.2133C17.5148 2.30141 15.0923 0.498777 12.85 0.498777C6.89181 0.498777 0 10.8277 0 17.5664C0 23.3609 4.06159 25.7681 6.20998 26.2314C6.83822 26.3668 7.49461 26.2475 8.03474 25.899C8.57484 25.5505 8.95443 25.0021 9.09002 24.3738C9.2256 23.7456 9.10606 23.089 8.7577 22.5489C8.40934 22.0087 7.86066 21.6293 7.23242 21.4935C6.895 21.4195 4.84695 20.714 4.84695 17.5664C4.84695 12.4163 10.3981 5.71631 12.6705 5.36092V33.5806C12.6705 40.4295 18.242 46.0011 25.091 46.0011C27.0373 46.0015 28.9563 45.5435 30.6929 44.665C32.4296 43.7866 33.9353 42.5119 35.0883 40.944C36.2416 42.5119 37.7474 43.7862 39.4843 44.6647C41.2208 45.5432 43.1398 46.0008 45.0858 46.0005C51.935 46.0005 57.5073 40.4292 57.5073 33.58V8.31982L63.7805 13.8957C64.224 14.2902 64.797 14.5079 65.3908 14.5079H84.767C85.3604 14.5075 85.9335 14.2899 86.3773 13.8957L92.6492 8.32015V43.5775C92.6492 44.2202 92.9046 44.837 93.3593 45.2913C93.8137 45.746 94.4301 46.0011 95.0732 46.0011C95.7159 46.0011 96.3324 45.746 96.7871 45.2913C97.2414 44.837 97.4969 44.2202 97.4969 43.5775V2.92245C97.4969 2.45527 97.3617 1.99796 97.1079 1.60574C96.8541 1.21352 96.4921 0.903161 96.0661 0.71149Z" fill="black"/>
</svg>
