<svg width="62" height="61" viewBox="0 0 62 61" fill="none" xmlns="http://www.w3.org/2000/svg">
<g clip-path="url(#clip0_47_101)">
<path d="M35.1617 14.3149C36.0116 14.291 35.796 15.3201 35.7965 15.9378L35.8015 22.5753C35.8018 23.4604 35.8671 24.4093 35.73 25.2829C35.3725 27.5612 33.5529 29.0426 31.5187 29.2142C31.4804 29.3081 31.4999 29.4622 31.5 29.5682L31.5011 35.6326C31.501 38.7115 31.4564 40.4584 29.4014 43.0162C29.135 43.3478 29.1795 43.4821 29.1789 43.914L29.19 51.3331C30.2569 51.5065 31.566 51.0929 32.1327 52.6694L32.1508 52.7224C32.6069 54.0259 31.7803 55.4898 30.5056 55.6085L30.4575 55.6125C29.9061 55.6646 29.3253 55.6238 28.7708 55.6248C27.3016 55.6272 25.6147 55.8176 25.1297 53.731L25.1158 53.6697C25.0443 53.3699 25.0635 53.0341 25.0626 52.7252L25.0504 46.5487C24.8222 46.4972 24.5336 46.5335 24.2963 46.5336L22.6517 46.5359C22.6068 46.8689 22.6336 47.2484 22.6144 47.5876C22.5224 49.2096 21.756 50.4323 20.5907 51.364C21.5649 51.186 22.6404 51.4003 23.1664 52.407L23.193 52.4592C23.5324 53.1166 23.5266 53.9049 23.1511 54.5524L23.1196 54.6053C22.4609 55.7243 21.4133 55.6283 20.3419 55.6264L10.0603 55.6265C8.22722 55.629 6.33506 55.8354 5.64391 53.3627L5.63098 53.3151C5.48451 52.7915 5.52751 52.1781 5.52698 51.6334L5.52417 48.8453C5.51318 48.597 5.05569 48.0686 4.9103 47.8405C1.73836 42.863 0.411816 35.8757 1.38215 29.8637L1.45034 29.5859C2.67005 24.0124 6.85388 19.693 12.2033 19.6885C12.6206 19.6882 13.019 19.6777 13.4275 19.7901L13.5974 19.8373C15.4802 20.3839 16.9112 22.4013 16.5845 24.5664C16.2531 26.7629 13.4491 27.3904 12.6934 25.311L12.6692 25.2437C12.5252 24.8593 12.5668 24.3515 12.56 23.9395C11.3539 23.762 10.02 24.2676 8.98207 24.9074C3.79536 28.104 4.52307 35.9613 6.20476 41.1871C6.40382 41.8057 6.59199 42.444 6.88869 43.0163C7.63437 39.1298 11.1264 35.2012 14.1232 33.3003C15.2137 32.6087 16.3794 32.0327 17.5057 31.4127L20.6255 29.5936C21.635 29.0073 24.4244 27.7391 24.7553 26.4326C24.8121 26.2083 24.7421 25.8462 24.7335 25.6052L24.7288 15.7828C24.7291 15.3913 24.7037 14.9772 24.7606 14.5902C25.3163 13.8382 26.2159 15.1276 26.6067 15.5268L28.0339 17.0149C28.3735 17.375 28.7193 17.7236 29.0049 18.1383C29.7512 18.0753 30.5629 18.026 31.3072 18.156C31.5188 18.1929 31.514 18.1945 31.6579 18.0119L33.8913 15.5077C34.2563 15.1208 34.6593 14.5779 35.118 14.3373L35.1617 14.3149Z" fill="black"/>
<path d="M47.3626 55.5393L41.6863 55.5357C39.0424 55.5309 39.9243 52.4541 41.7936 51.6844C42.4891 51.3981 43.4817 51.5207 44.2326 51.5253C44.3501 51.3862 44.3145 51.1594 44.3356 50.9889L45.4474 43.1731C45.4941 42.8859 45.4602 42.9117 45.2972 42.6633L44.7567 41.8241C43.28 39.3555 42.1701 36.5727 42.48 33.6468C42.6547 31.9959 43.325 30.434 43.6103 28.8061C43.77 27.8948 43.7156 26.9558 43.7163 26.0333L43.7145 20.3683C43.7116 19.8042 43.8633 19.7031 43.3922 19.3543C42.0261 18.3427 38.1844 16.8709 39.2972 14.5355C39.6209 13.8565 40.4893 13.4791 41.1129 13.1371L44.2738 11.316C44.8011 11.0009 45.4906 10.7247 45.9078 10.4528L45.9085 7.04378C45.9093 6.19675 45.6004 5.26476 46.3658 4.94182L46.4948 4.92313C47.1027 4.90006 47.8268 6.30884 48.1294 6.72327L49.6023 8.75625C51.3998 11.2114 51.9799 11.9727 51.9848 14.9342C51.9867 16.0401 51.9338 17.1767 52.0122 18.2799C52.273 21.9471 54.4462 25.2631 56.1497 28.4028C58.5962 32.9121 61.1804 38.8231 61.2067 44.0213L61.2098 46.9514C61.2093 47.4859 61.245 48.0512 61.1835 48.5818C60.7515 52.3102 57.8052 55.2127 54.0406 55.5205C53.1994 55.5893 52.3168 55.5402 51.4717 55.5408L47.3626 55.5393Z" fill="black"/>
</g>
<defs>
<clipPath id="clip0_47_101">
<rect width="60.7188" height="60.7188" fill="white" transform="translate(0.789062 0.201172)"/>
</clipPath>
</defs>
</svg>
