<svg width="40" height="60" viewBox="0 0 40 60" fill="none" xmlns="http://www.w3.org/2000/svg">
<g clip-path="url(#clip0_104_63)">
<path d="M5.89462 0.613431L33.1896 0.596242C33.5991 0.596601 34.0216 0.576186 34.4286 0.630492C37.1802 0.997732 39.774 3.283 39.9682 6.15738C40.0377 7.18577 39.9817 8.25509 39.9805 9.28748L39.9801 52.1652C39.9812 52.8969 40.0371 53.6743 39.9622 54.3997C39.6488 57.4338 37.1986 59.7526 34.1482 59.9224C33.5396 59.9766 32.9097 59.9467 32.2991 59.9468L7.35832 59.9417C5.65963 59.9365 4.04569 59.824 2.62372 58.7442C0.11923 56.8422 0.06573 54.9405 0.0668819 52.1783L0.0656008 9.22416C0.0571535 7.00159 -0.198696 5.09903 1.24477 3.19574C2.4105 1.65849 4.01036 0.86621 5.89462 0.613431ZM2.57458 9.19675C2.01795 9.20042 1.36533 9.13828 0.822144 9.23772L0.835971 48.9017L37.5571 48.8991L39.1807 48.8977L39.1682 10.0904C39.1665 9.82617 39.2 9.49198 39.1397 9.23613C38.0302 9.13502 36.8731 9.19952 35.7578 9.19904L3.0489 9.19662C2.91733 9.19662 2.6986 9.22589 2.57458 9.19675ZM19.5706 50.6891C16.9268 51.0016 15.5504 53.9617 16.8987 56.2467L16.9344 56.308C17.4162 57.1215 18.2897 57.7475 19.193 57.999L19.2589 58.0185C19.6684 58.136 20.0962 58.099 20.5144 58.0635C23.8104 57.4336 25.017 53.1446 22.0197 51.1899C21.4322 50.8066 20.2812 50.5232 19.5706 50.6891ZM15.0547 4.39394C14.5143 4.6814 14.2563 4.92381 14.6118 5.48774C14.9796 6.07098 16.0593 5.84419 16.638 5.8447L23.3195 5.84803C23.8656 5.84866 24.4506 5.89871 24.9908 5.83049C25.2016 5.77277 25.3353 5.70903 25.4486 5.51436C26.1237 4.35401 24.735 4.39829 24.0613 4.39931L15.0547 4.39394Z" fill="black"/>
<path fill-rule="evenodd" clip-rule="evenodd" d="M11.8345 16.6281C11.1805 16.0158 10.7698 15.6314 9.69646 15.6749C7.40802 15.9888 7.41591 18.3315 7.65605 20.1339L8.3139 25.6663C8.58013 27.4088 8.56664 27.4584 8.16276 28.9448C8.12906 29.069 8.09259 29.2032 8.05328 29.3493L7.53826 31.2417C7.50269 31.2357 7.46712 31.2297 7.43155 31.2236C6.91702 31.1362 6.39982 31.0484 5.87826 31.0214C4.81352 30.9666 4.73736 32.103 5.49084 32.3154C5.76974 32.3942 6.07198 32.4239 6.37358 32.4535C6.59904 32.4756 6.82414 32.4978 7.03889 32.5403C7.2728 32.5866 7.50165 32.6531 7.7303 32.7195C8.03584 32.8082 8.3411 32.8969 8.65806 32.9374L12.5914 33.1731V34.1661C12.176 34.3108 11.2608 34.3194 11.2608 34.3194C11.2035 34.3196 8.25688 34.5682 8.25688 34.5682C8.22899 34.5699 8.20255 34.5715 8.17923 34.574L6.33314 34.753C6.26162 34.7601 6.1878 34.7661 6.11286 34.7721C5.85516 34.7929 5.58428 34.8148 5.34889 34.8886C4.60259 35.123 4.88685 36.0928 5.61409 36.0735C6.01703 36.0627 6.4153 36.0063 6.81312 35.9499C7.13024 35.9049 7.44712 35.8601 7.76588 35.8383C8.13556 35.8425 9.86352 35.6839 10.2282 35.6446C10.3639 35.63 10.0249 35.6724 10.2282 35.6446C10.2282 35.6446 12.2568 35.4578 12.7517 35.627L12.7903 36.4057C12.2881 36.4363 9.44062 36.6897 9.21176 36.9832C8.99515 37.2608 9.91605 38.3222 10.0926 38.5138C13.137 41.8194 16.2391 42.345 20.4135 42.3452C24.0218 42.3453 27.3417 41.4905 29.8426 38.6349C29.8547 38.621 29.8669 38.6071 29.8792 38.5931C30.2317 38.1911 30.645 37.7196 30.7965 37.2009L30.802 37.0409C30.5595 36.8231 30.2253 36.7719 29.9093 36.7234C29.876 36.7183 29.8429 36.7133 29.8102 36.708L27.2621 36.3209C27.2641 36.2818 27.2653 36.2386 27.2666 36.1931C27.2724 35.9852 27.2795 35.7276 27.3748 35.5751C28.0769 35.5833 28.7641 35.6405 29.4541 35.6978C29.8132 35.7277 30.1731 35.7576 30.5363 35.7807L32.6161 35.8686C32.8785 35.8913 33.144 35.9262 33.4104 35.9612C33.8425 36.0181 34.2768 36.0753 34.7032 36.0805C35.202 36.0866 35.389 35.3052 35.0529 35.0141C34.823 34.8148 34.2856 34.7958 33.8867 34.7816C33.7837 34.7779 33.69 34.7746 33.6131 34.7686L32.4028 34.6606C32.3725 34.6582 32.3347 34.6569 32.2929 34.6554L27.4041 34.2333C27.5333 34.2306 27.281 34.2331 27.4041 34.2333L27.437 34.1111C27.4365 34.072 27.4358 34.0326 27.4351 33.9931C27.4304 33.7257 27.4256 33.4482 27.479 33.1886C27.8877 33.1523 28.3886 33.1508 28.9168 33.1491C29.9958 33.1459 31.1887 33.1423 31.9419 32.8411L32.1138 32.7254L32.114 32.7213C32.5466 32.5126 33.1174 32.4726 33.6305 32.4367C33.7563 32.4278 33.8787 32.4192 33.9947 32.4085C35.4777 32.271 35.3066 31.2667 34.6016 31.06C34.4387 31.0122 34.2558 31.035 34.086 31.0561C34.0614 31.0592 34.0371 31.0622 34.0131 31.065L32.938 31.1935C32.9026 31.1967 32.8662 31.2007 32.8293 31.205C32.7017 31.2194 32.5684 31.2345 32.4466 31.2135L32.0169 29.22C31.7718 28.1829 31.657 27.754 31.6365 27.3207C31.6163 26.8953 31.6869 26.4655 31.8145 25.4513L32.1456 22.4643C32.1758 22.2014 32.2182 21.9081 32.2635 21.5945C32.5372 19.7019 32.9168 17.076 31.3416 16.0057C29.9756 15.0778 28.9078 16.052 27.9755 16.9026C27.8868 16.9835 27.7994 17.0632 27.7131 17.1401C27.5978 17.2427 27.3151 17.5068 26.9463 17.8511C25.746 18.9718 23.6342 20.9435 23.4199 20.9725C23.3976 20.9755 23.2105 20.9423 22.9588 20.8976C22.4906 20.8144 21.7987 20.6915 21.528 20.6882L19.509 20.6893C19.3932 20.6897 19.2765 20.6886 19.1595 20.6874C18.8687 20.6844 18.5758 20.6815 18.2896 20.7039C17.1682 20.7915 16.8039 20.9275 16.5038 20.8411C16.1874 20.7499 15.9423 20.4115 14.9563 19.5081L12.17 16.9378C12.0495 16.8293 11.939 16.7257 11.8345 16.6281ZM18.7484 33.7425C18.1667 32.9016 17.5839 32.0591 18.6434 31.8794L20.6898 31.852C22.6131 31.8572 21.9907 32.7481 21.3374 33.6834C21.0977 34.0264 20.8539 34.3754 20.73 34.6888C20.3311 35.6983 21.8791 37.1191 22.7738 37.184C22.9107 37.194 23.112 37.1688 23.3349 37.1409C23.8985 37.0705 24.6007 36.9827 24.7507 37.4008L24.6262 37.6147C23.7226 38.8028 21.9093 38.3654 20.9006 37.5075L20.0546 36.5725C19.9555 36.6788 19.8563 36.7911 19.7555 36.905C19.2999 37.4205 18.8124 37.9722 18.1552 38.1775C17.3453 38.4304 14.9767 38.1079 15.5445 37.228C15.7949 37.1947 16.0501 37.1925 16.3053 37.1902C16.6312 37.1874 16.9574 37.1845 17.2742 37.1169L17.3374 37.1029C18.1369 36.9389 19.2185 36.001 19.4245 35.2204C19.5201 34.858 19.1345 34.3006 18.7484 33.7425ZM13.3472 28.4129C12.1205 29.4256 11.9221 26.875 14.258 26.5964C17.0494 26.399 17.0832 29.8681 15.5196 28.3684C15.3358 28.1921 15.1462 28.0791 14.9115 27.9823L14.8502 27.9574C14.1817 27.8306 13.8477 27.9996 13.3472 28.4129ZM9.54733 17.8938C9.98124 18.2652 10.3605 18.6857 10.7415 19.1082C10.8197 19.1949 10.898 19.2817 10.9769 19.3681L13.429 22.0566C13.0965 22.169 12.7787 22.3286 12.4641 22.4865C12.4064 22.5155 12.3488 22.5445 12.2911 22.5731C12.1743 22.6329 12.0576 22.6935 11.9408 22.7542L11.9406 22.7543C11.3297 23.0717 10.716 23.3905 10.0629 23.6079L9.8056 21.571C9.77605 21.352 9.74345 21.1329 9.71086 20.9137C9.56172 19.9113 9.41238 18.9072 9.54733 17.8938ZM25.4059 26.6112L25.7563 26.6047C26.3574 26.6479 26.8862 26.8504 27.2801 27.3231C27.7518 27.889 27.6052 29.3469 26.6576 28.3747C26.3367 28.0456 26.0902 27.9356 25.6419 27.883C25.195 27.9187 24.4599 28.1196 24.3181 28.6183L24.0728 28.7497C22.8909 28.8508 23.3331 26.8115 25.4059 26.6112ZM30.5119 17.9112L30.4257 17.8967C29.432 18.8565 27.4952 21.0637 26.7289 22.1594L27.8711 22.674L29.9559 23.6799C29.9758 23.5577 30.0082 23.3748 30.0482 23.1483C30.3086 21.6759 30.8944 18.3625 30.5119 17.9112Z" fill="black"/>
<path d="M19.5751 51.9668C19.8527 51.9426 20.1638 51.9305 20.4392 51.9764L20.4926 51.9861C21.233 52.1069 21.9153 52.5501 22.2556 53.2313L22.2882 53.2981C22.5311 53.7886 22.6272 54.4911 22.4574 55.0191L22.4392 55.0723C22.1634 55.8985 21.481 56.5071 20.6284 56.7031C20.3365 56.7486 20.0365 56.7623 19.7428 56.7262L19.6727 56.7173C16.9419 56.3947 16.9653 52.4668 19.5751 51.9668Z" fill="black"/>
</g>
<defs>
<clipPath id="clip0_104_63">
<rect width="40" height="59.4464" fill="white" transform="translate(0 0.553711)"/>
</clipPath>
</defs>
</svg>
