<svg width="578" height="859" viewBox="0 0 578 859" fill="none" xmlns="http://www.w3.org/2000/svg">
<path d="M85.1345 0.861981L479.547 0.6136C485.464 0.618778 491.57 0.323794 497.45 1.10851C537.211 6.41513 574.692 39.4373 577.497 80.972C578.502 95.8323 577.693 111.284 577.675 126.202L577.669 745.785C577.686 756.358 578.494 767.591 577.411 778.074C572.883 821.917 537.477 855.423 493.399 857.876C484.605 858.66 475.502 858.227 466.679 858.229L106.285 858.155C81.7389 858.081 58.4174 856.455 37.87 840.852C1.6801 813.367 0.907024 785.888 0.923669 745.975L0.905156 125.287C0.783093 93.1709 -2.91393 65.6789 17.9441 38.1764C34.7889 15.9631 57.9069 4.51464 85.1345 0.861981ZM37.1599 124.891C29.1166 124.944 19.6863 124.046 11.8372 125.483L12.037 698.628L542.658 698.59L566.118 698.57L565.937 137.804C565.913 133.986 566.397 129.157 565.526 125.46C549.493 123.999 532.774 124.931 516.658 124.924L44.0139 124.889C42.1127 124.889 38.952 125.312 37.1599 124.891ZM282.753 724.455C244.549 728.971 224.66 771.745 244.144 804.763L244.66 805.649C251.622 817.403 264.244 826.45 277.296 830.084L278.248 830.365C284.166 832.063 290.347 831.529 296.391 831.015C344.018 821.913 361.453 759.938 318.142 731.692C309.652 726.153 293.021 722.058 282.753 724.455ZM217.497 55.4903C209.689 59.6442 205.961 63.147 211.098 71.2957C216.412 79.7236 232.014 76.4464 240.377 76.4538L336.924 76.5019C344.815 76.5111 353.269 77.2343 361.075 76.2485C364.121 75.4144 366.052 74.4934 367.689 71.6804C377.445 54.9133 357.378 55.5532 347.643 55.568L217.497 55.4903Z" fill="black"/>
<path fill-rule="evenodd" clip-rule="evenodd" d="M170.979 232.28C161.528 223.432 155.594 217.878 140.084 218.506C107.016 223.043 107.13 256.895 110.6 282.939L120.106 362.883C123.953 388.061 123.758 388.778 117.922 410.257C117.435 412.052 116.908 413.991 116.34 416.101L108.898 443.447C108.384 443.36 107.87 443.273 107.356 443.185C99.921 441.923 92.4475 440.653 84.9109 440.264C69.5254 439.471 68.425 455.892 79.3127 458.962C83.3428 460.1 87.7102 460.529 92.0683 460.957C95.3262 461.277 98.5789 461.597 101.682 462.212C105.062 462.881 108.369 463.841 111.673 464.801C116.088 466.083 120.499 467.364 125.079 467.949L181.916 471.355V485.705C175.914 487.796 162.689 487.92 162.689 487.92C161.86 487.923 119.282 491.515 119.282 491.515C118.879 491.539 118.497 491.563 118.16 491.599L91.4839 494.185C90.4505 494.288 89.3838 494.374 88.3009 494.461C84.5772 494.762 80.663 495.078 77.2616 496.145C66.4775 499.532 70.5851 513.545 81.0937 513.266C86.9162 513.11 92.6712 512.295 98.4197 511.48C103.002 510.83 107.581 510.182 112.187 509.868C117.529 509.928 142.498 507.636 147.767 507.069C149.728 506.858 144.83 507.471 147.767 507.069C147.767 507.069 177.081 504.37 184.232 506.815L184.79 518.067C177.533 518.509 136.387 522.171 133.08 526.411C129.95 530.423 143.257 545.76 145.808 548.529C189.8 596.295 234.625 603.89 294.945 603.892C347.085 603.894 395.057 591.542 431.196 550.279C431.371 550.078 431.547 549.877 431.725 549.674C436.818 543.865 442.79 537.052 444.979 529.557L445.059 527.246C441.555 524.098 436.726 523.358 432.159 522.658C431.678 522.584 431.2 522.511 430.728 522.435L393.907 516.842C393.937 516.277 393.954 515.652 393.972 514.994C394.056 511.99 394.159 508.268 395.536 506.064C405.682 506.183 415.611 507.009 425.582 507.838C430.771 508.269 435.971 508.702 441.219 509.036L471.273 510.306C475.064 510.633 478.901 511.138 482.75 511.644C488.994 512.466 495.27 513.292 501.432 513.367C508.639 513.456 511.341 502.165 506.485 497.958C503.162 495.078 495.397 494.803 489.633 494.598C488.145 494.545 486.791 494.497 485.68 494.41L468.19 492.85C467.753 492.815 467.207 492.796 466.603 492.775L395.96 486.676C394.18 486.673 397.827 486.637 395.96 486.676L396.435 484.91C396.428 484.345 396.418 483.776 396.408 483.204C396.34 479.34 396.27 475.331 397.042 471.579C402.947 471.055 410.185 471.033 417.818 471.009C433.41 470.962 450.647 470.91 461.53 466.558L464.015 464.886L464.018 464.827C470.269 461.812 478.516 461.233 485.931 460.714C487.749 460.586 489.517 460.462 491.193 460.307C512.623 458.32 510.15 443.808 499.963 440.821C497.61 440.131 494.966 440.46 492.513 440.765C492.158 440.809 491.806 440.853 491.46 440.893L475.924 442.75C475.412 442.796 474.886 442.855 474.354 442.916C472.51 443.125 470.584 443.343 468.824 443.04L462.614 414.233C459.073 399.247 457.414 393.05 457.117 386.789C456.825 380.641 457.846 374.431 459.69 359.776L464.474 316.614C464.91 312.815 465.523 308.576 466.178 304.045C470.132 276.697 475.618 238.752 452.856 223.287C433.118 209.878 417.688 223.956 404.216 236.247C402.935 237.416 401.672 238.568 400.424 239.679C398.759 241.162 394.673 244.977 389.344 249.953C372 266.147 341.485 294.638 338.388 295.057C338.066 295.1 335.362 294.62 331.725 293.974C324.959 292.772 314.962 290.996 311.05 290.949L281.875 290.964C280.202 290.971 278.516 290.954 276.825 290.937C272.623 290.894 268.39 290.852 264.255 291.175C248.051 292.441 242.787 294.407 238.45 293.158C233.878 291.841 230.336 286.95 216.088 273.897L175.826 236.755C174.085 235.187 172.488 233.691 170.979 232.28ZM270.884 479.583C262.479 467.432 254.057 455.258 269.367 452.661L298.938 452.265C326.729 452.341 317.736 465.214 308.295 478.729C304.832 483.686 301.309 488.729 299.519 493.258C293.754 507.845 316.123 528.376 329.052 529.313C331.029 529.457 333.938 529.093 337.159 528.691C345.303 527.673 355.45 526.404 357.617 532.446L355.819 535.537C342.761 552.705 316.559 546.385 301.984 533.987L289.759 520.477C288.327 522.013 286.893 523.635 285.437 525.282C278.854 532.731 271.809 540.703 262.312 543.669C250.61 547.323 216.384 542.664 224.588 529.949C228.207 529.468 231.894 529.436 235.582 529.403C240.291 529.362 245.004 529.321 249.582 528.344L250.495 528.141C262.049 525.772 277.677 512.219 280.654 500.939C282.036 495.703 276.464 487.648 270.884 479.583ZM192.837 402.571C175.112 417.204 172.244 380.348 205.998 376.322C246.334 373.47 246.822 423.599 224.228 401.927C221.572 399.38 218.833 397.747 215.441 396.349L214.555 395.988C204.896 394.156 200.07 396.599 192.837 402.571ZM137.929 250.569C144.199 255.936 149.679 262.013 155.185 268.118C156.315 269.371 157.446 270.625 158.586 271.874L194.019 310.722C189.214 312.347 184.623 314.652 180.077 316.934C179.243 317.353 178.41 317.772 177.577 318.185C175.889 319.05 174.202 319.926 172.515 320.802L172.512 320.804C163.684 325.39 154.816 329.997 145.379 333.139L141.661 303.705C141.234 300.54 140.763 297.374 140.292 294.207C138.137 279.723 135.979 265.214 137.929 250.569ZM367.086 376.536L372.148 376.442C380.835 377.067 388.475 379.993 394.167 386.823C400.983 395 398.865 416.067 385.172 402.018C380.535 397.263 376.973 395.673 370.496 394.914C364.038 395.429 353.415 398.332 351.366 405.539L347.822 407.437C330.743 408.898 337.134 379.431 367.086 376.536ZM440.867 250.821L439.622 250.612C425.263 264.481 397.276 296.375 386.203 312.208L402.708 319.644L432.833 334.179C433.121 332.413 433.588 329.77 434.167 326.497C437.929 305.221 446.394 257.342 440.867 250.821Z" fill="black"/>
<path d="M282.869 742.918C286.879 742.568 291.375 742.394 295.355 743.056L296.126 743.197C306.825 744.943 316.684 751.347 321.602 761.19L322.072 762.155C325.582 769.243 326.971 779.394 324.518 787.023L324.254 787.792C320.27 799.731 310.409 808.525 298.088 811.358C293.87 812.015 289.536 812.213 285.292 811.691L284.278 811.562C244.819 806.901 245.157 750.143 282.869 742.918Z" fill="black"/>
</svg>
