<svg width="62" height="61" viewBox="0 0 62 61" fill="none" xmlns="http://www.w3.org/2000/svg">
<path d="M18.235 8.23355C18.6564 8.17377 19.1886 8.65833 19.3036 9.02733C19.4127 9.37766 19.3509 9.90733 19.3509 10.2795L19.343 18.3297C19.3153 18.893 18.9707 19.0765 18.5976 19.4502L15.5807 22.507C15.1874 22.9097 14.842 23.4097 14.263 23.5309C14.141 23.5267 14.0298 23.5079 13.9101 23.4848L13.8349 23.4708C13.598 23.4189 13.3825 23.1904 13.2719 22.984C12.8359 22.17 13.7829 21.5552 14.2752 21.0543L17.259 18.0438C17.4979 17.8141 17.4522 17.7816 17.4501 17.4645L17.4417 9.7087C17.4422 9.00126 17.5005 8.55999 18.235 8.23355Z" fill="black"/>
<path d="M54.5347 2.23929C55.6494 2.09327 56.0964 3.14143 56.097 4.07477L56.0987 13.8097C56.0986 14.6491 56.1746 15.5622 56.0535 16.3908C55.6949 18.8437 53.9103 21.8659 51.5058 22.7944C51.0362 22.9757 51.0028 22.8243 51.0003 23.3473L50.99 33.6565C50.9213 35.4607 50.3125 37.3774 49.4787 38.9574C49.0887 39.6963 48.9956 39.4063 48.9926 40.3536L48.9987 44.6582C48.9983 45.4674 48.9266 45.9109 49.2074 46.6706L52.2133 54.1492C53.8474 54.3712 55.2518 53.762 56.5213 55.2758C56.9965 55.8425 57.0333 56.641 56.9559 57.3405C56.7688 59.0302 55.2724 58.8518 54.0238 58.8529L47.9423 58.853C45.7799 58.851 45.2128 58.8689 44.4337 56.5207L41.7803 48.6029C41.1753 46.9796 40.6256 45.3817 39.6349 43.9426L38.4712 43.2468C40.5645 46.1629 39.241 49.5507 37.796 52.9294C37.7018 53.1496 37.4045 53.8876 37.2243 54.0296L37.1659 54.0724C37.9933 54.1434 38.8857 54.0683 39.7195 54.0672C41.5466 54.0649 43.5488 55.0526 43.216 57.1418L43.1715 57.382C42.9992 58.2247 42.2811 58.8045 41.436 58.846L25.2399 58.8522C22.9457 58.8513 21.2698 58.9132 19.0673 57.9897C12.8507 55.3825 8.58827 48.8725 8.11911 42.2054C7.74684 36.9171 9.6504 32.115 12.421 27.7336C12.8994 26.9771 13.3502 26.1133 14.2293 25.768C15.4284 25.2969 16.7659 25.9649 17.2098 27.1537L17.2326 27.2168C17.722 28.5441 16.9707 29.4303 16.2678 30.4581C13.6854 34.2344 12.5194 38.681 13.1224 43.2468C13.3183 44.3982 13.5756 45.5382 14.029 46.6191C14.5952 47.9689 15.2931 49.0323 16.1139 50.208L16.1015 41.4782C16.105 41.04 16.0855 40.5741 16.1595 40.1416L16.3495 38.6812C17.5657 31.1982 22.6534 23.9172 29.2354 20.082C29.465 19.9481 29.7132 19.8758 29.947 19.7512L29.9413 18.3773C29.466 18.3316 28.8376 18.3828 28.4363 18.0987C28.0245 17.8072 27.9078 17.0922 28.2517 16.7056C28.5829 16.3332 29.2707 16.3534 29.7314 16.3212L29.7216 16.1544C29.5631 14.398 28.1654 11.5898 26.7576 10.4366C26.4995 10.766 26.1746 11.2404 25.7221 11.279C25.3472 11.3112 24.6883 10.8685 24.6674 10.469C24.6368 9.88612 24.9704 9.46498 25.3296 9.04372L24.7348 8.617C23.3791 7.75677 21.8035 7.1775 20.2064 7.00386C18.1403 6.77928 18.809 8.27419 17.8714 7.05248C16.2151 6.54585 12.8133 7.8864 11.4585 9.11975C11.7964 9.46425 12.0269 9.86696 12.16 10.3295C11.7772 11.657 10.7541 11.3603 10.0383 10.4046C8.31349 11.9733 7.40912 14.0482 6.96276 16.2846L7.7392 16.3524C8.54061 16.4963 8.95157 17.418 8.32234 18.0064C7.9183 18.3844 7.25985 18.2774 6.75407 18.2589C6.71284 20.3454 7.33042 22.5767 8.52024 24.2996C8.7493 24.6314 9.25872 25.0549 9.34918 25.438C9.51531 26.1428 8.63156 27.1369 7.99845 26.6876L7.96668 26.664C7.60399 26.4138 7.36304 26.03 7.10912 25.6784C5.63343 23.6357 4.84224 20.8496 4.83598 18.3343C4.81709 10.7419 11.0272 4.9076 18.5237 4.91505C24.9224 4.92141 30.763 9.71369 31.6757 16.1152C31.811 17.0642 31.8039 18.0023 31.8021 18.9577L31.8218 18.9551C32.6001 18.4605 34.9289 17.9649 35.8164 17.813C36.1492 17.7561 36.5157 17.7771 36.835 17.678L36.8458 4.1554C36.8657 2.15698 38.1125 1.67962 39.6672 2.98399L44.0103 6.70713C44.5868 7.2191 44.538 7.02314 45.3801 7.02205L48.3461 7.01623C48.5241 6.93462 49.15 6.31897 49.364 6.14072L52.757 3.32241C53.3271 2.85229 53.778 2.36376 54.5347 2.23929Z" fill="black"/>
</svg>
