<svg width="62" height="61" viewBox="0 0 62 61" fill="none" xmlns="http://www.w3.org/2000/svg">
<path d="M51.4476 48.1278L46.2014 45.9173L45.5835 46.495C42.2671 49.294 37.9201 50.871 33.6252 51.2086C28.1717 51.6371 21.1134 50.1828 17.1453 46.3141C16.808 45.9851 16.844 45.8828 16.4192 46.0498L11.7726 47.9848C11.0403 48.3144 10.3109 48.7089 9.56017 48.9896C8.306 49.4584 7.64331 48.1271 8.50117 47.5849C9.0551 47.235 9.7394 46.9957 10.3355 46.7132L15.5846 44.3692L15.0855 43.4215C14.5154 42.349 14.7292 42.6306 13.6184 42.8004L10.6131 43.1983L5.83745 44.2098C5.42357 44.3093 4.65584 44.5854 4.24806 44.4352C3.54098 44.1748 3.42179 43.1092 4.14839 42.7846C4.72527 42.5269 5.46349 42.4477 6.08179 42.3134L9.18264 41.6425C10.2719 41.446 11.3839 41.3315 12.4499 41.0287C11.9279 40.1307 11.1233 39.9928 10.1597 39.7906L5.33373 38.7539C4.85518 38.6432 4.02414 38.5564 3.68564 38.1878C3.16762 37.6239 3.77802 36.7447 4.47914 36.7781C5.25208 36.8149 6.08611 37.1225 6.84534 37.2942C8.83356 37.7438 10.8651 38.2612 12.8912 38.4771L12.354 34.6284C12.2035 33.7574 12.2145 32.8304 12.2161 31.9482L12.2211 28.2972C12.2227 26.7005 12.2637 26.4664 11.8496 24.9201L11.3793 23.0046C10.8455 20.6965 10.526 18.372 10.5114 16.0066C10.4988 13.9708 10.2044 10.0087 12.8735 9.65576C16.7821 9.41543 21.798 13.4528 24.0015 16.3047C24.4522 16.888 24.9634 17.5185 25.2483 18.2031L25.2746 18.2673C29.2259 17.5309 33.6103 17.4172 37.5749 18.2522C39.6786 14.3567 44.2479 10.6736 48.537 9.80253C51.3563 9.23002 51.9712 10.4819 52.2544 12.9446C52.6957 16.7822 52.2013 20.9557 51.0838 24.6654C50.5771 26.3476 50.6379 26.2205 50.6403 28.0053L50.6428 31.8484C50.6419 32.5145 50.6717 33.2671 50.5427 33.9181L50.0273 38.3821C51.0875 38.3286 52.1391 38.0912 53.1742 37.8682L56.3224 37.185C56.9419 37.0452 57.5751 36.878 58.2043 36.7924C59.3049 36.6428 59.8802 37.9673 58.7316 38.443C58.2037 38.6616 57.5508 38.7225 56.9914 38.8444L54.0074 39.5197C53.3684 39.6541 50.195 39.9546 50.5536 41.0431C50.8067 41.2798 51.384 41.2912 51.7225 41.3388L56.8391 42.3165C57.4188 42.4372 58.0979 42.503 58.6407 42.7326C59.37 43.041 59.4562 44.2603 58.6276 44.4547C58.2554 44.542 57.766 44.3539 57.4063 44.2603L51.362 43.0367C50.3798 42.8782 49.3858 42.8305 48.4263 42.5549C48.0442 43.1733 47.5931 43.7612 47.2693 44.4115C48.9835 45.2759 50.8325 45.9327 52.5857 46.7248C53.3487 47.0696 55.6245 47.7943 54.3588 49.0107C53.9485 49.4051 53.2325 48.9699 52.8293 48.7777L51.4476 48.1278ZM18.2413 27.6856C15.2587 28.0603 15.2707 33.0029 17.5817 33.4648C17.95 33.5384 18.3992 33.4928 18.7778 33.4916L24.6279 33.4765C25.3177 33.4749 26.0351 33.5096 26.721 33.4362C28.4878 33.2465 27.6808 29.9931 30.9488 29.5587L31.035 29.5463C33.4425 29.2176 34.4386 30.9643 35.1716 32.8241C35.5734 33.8433 36.4487 33.4837 37.4952 33.484L40.7027 33.4825L43.7538 33.4821C44.216 33.4813 44.7945 33.5434 45.2422 33.4381C47.262 32.9631 47.3635 29.6603 45.9952 28.328C45.344 27.6939 44.8493 27.6939 44.0083 27.6947L18.2413 27.6856ZM30.9734 33.3523C27.3938 33.9289 27.1402 38.5453 29.9711 39.4956C30.1742 39.5637 30.3813 39.5757 30.5678 39.6878C30.5806 43.121 30.6194 43.7088 27.065 43.9486C26.1061 44.0134 26.0659 45.291 28.4331 45.2044C29.3932 45.1693 30.2692 44.802 30.926 44.0894L31.3737 43.5741L31.7686 44.0149L32.2497 44.471C33.0411 45.1679 34.2801 45.3178 35.2919 45.245C36.459 45.1609 37.1263 43.7877 35.403 43.8499C33.3735 43.923 32.2444 43.2783 32.2225 41.2366L32.212 39.7344C33.1548 39.3794 33.7192 39.2039 34.3056 38.2465C35.7989 35.8088 33.8095 33.1988 30.9734 33.3523ZM20.2295 39.4349L15.9724 39.4369C15.3343 39.4376 14.5508 39.3532 13.9308 39.4814C13.0232 39.6692 13.1264 40.9494 13.9857 40.9524L15.2461 40.8722L21.8929 40.8441C22.2909 40.0167 22.2797 39.4187 21.2524 39.4224L20.2295 39.4349ZM41.4876 39.4403C40.4197 39.5126 40.3382 40.295 40.9317 40.7883C41.1519 40.9713 47.9195 40.8415 48.7574 40.895C48.9809 40.8876 49.1723 40.8959 49.3238 40.7045C50.741 38.9136 46.5791 39.4352 45.8523 39.4354L41.4876 39.4403Z" fill="black"/>
</svg>
