<svg width="141" height="71" viewBox="0 0 141 71" fill="none" xmlns="http://www.w3.org/2000/svg">
<g clip-path="url(#clip0_99_62)">
<path d="M66.6169 52.2778C66.9751 52.2778 67.1542 52.8051 67.1542 53.8598C67.1542 55.392 66.7562 56.7053 65.9603 57.7999C65.1842 58.8943 64.1693 59.4415 62.9157 59.4415C61.662 59.4415 60.6174 59.0037 59.7815 58.1282C58.9657 57.2328 58.5577 56.0885 58.5577 54.6956V50.4571C58.5577 48.0891 57.9608 46.9051 56.7668 46.9051C55.7122 46.9051 54.8466 47.4423 54.17 48.5169C53.4934 49.5915 53.1551 51.3923 53.1551 53.9195V59.0236C52.9562 59.3022 52.608 59.4415 52.1105 59.4415C51.613 59.4415 51.2151 59.2922 50.9165 58.9938C50.618 58.6754 50.4688 58.2177 50.4688 57.6207V42.6666C50.4688 40.0796 50.7176 38.2092 51.2151 37.055C51.7124 35.881 52.6677 35.2939 54.0804 35.2939C54.8367 35.2939 55.4237 35.6123 55.8416 36.2491C56.2594 36.8859 56.4683 37.7913 56.4683 38.9654C56.4683 41.0945 55.364 43.2635 53.1551 45.4724V48.099C53.9909 46.6066 55.3142 45.8603 57.125 45.8603C58.4184 45.8603 59.4432 46.2683 60.1995 47.0841C60.9756 47.9 61.3635 49.0741 61.3635 50.6063V54.8449C61.3635 55.979 61.5427 56.8347 61.9008 57.4118C62.259 57.9889 62.7864 58.2774 63.4828 58.2774C64.1793 58.2774 64.7962 57.8098 65.3334 56.8746C65.8906 55.9193 66.1692 54.4468 66.1692 52.457C66.1891 52.3375 66.3383 52.2778 66.6169 52.2778ZM53.1551 44.0396C54.5083 42.2885 55.1849 40.5871 55.1849 38.9354C55.1849 37.2839 54.8267 36.458 54.1104 36.458C53.7123 36.458 53.4537 36.9157 53.3343 37.8311C53.2148 38.7465 53.1551 40.8159 53.1551 44.0396ZM78.7451 52.636C79.1629 52.636 79.3718 52.9543 79.3718 53.5911C79.3718 55.0638 78.8545 56.4069 77.8197 57.6207C76.8049 58.8346 75.2527 59.4415 73.1633 59.4415C71.0739 59.4415 69.3924 58.8844 68.119 57.77C66.8652 56.6357 66.2385 54.9842 66.2385 52.8152C66.2385 50.6262 66.7956 48.9249 67.91 47.711C69.0243 46.4773 70.4471 45.8603 72.1784 45.8603C73.432 45.8603 74.3474 46.1987 74.9244 46.8752C75.5015 47.5318 75.7901 48.3179 75.7901 49.2333C75.7901 50.7258 75.1632 51.9694 73.9096 52.9644C72.6758 53.9394 71.0939 54.427 69.1636 54.427C69.3426 55.7004 69.8004 56.6656 70.5366 57.3223C71.2928 57.9591 72.2778 58.2774 73.4917 58.2774C74.7254 58.2774 75.8298 57.8198 76.8049 56.9044C77.7999 55.9691 78.2972 54.606 78.2972 52.8152C78.3172 52.6957 78.4665 52.636 78.7451 52.636ZM69.0741 53.0539V53.3226C70.3078 53.1633 71.3725 52.7753 72.2679 52.1584C73.1833 51.5416 73.6409 50.6262 73.6409 49.4123C73.6409 48.6363 73.4718 48.0493 73.1335 47.6513C72.7952 47.2334 72.3177 47.0244 71.7007 47.0244C70.7655 47.0244 70.0889 47.4822 69.671 48.3975C69.2731 49.3129 69.0741 50.8651 69.0741 53.0539ZM78.3638 47.6811C78.3638 47.0841 78.513 46.6364 78.8115 46.338C79.11 46.0195 79.488 45.8603 79.9458 45.8603C80.4034 45.8603 80.7716 45.9996 81.0502 46.2783V54.8449C81.0502 57.2128 81.6471 58.3968 82.8411 58.3968C83.9157 58.3968 84.7912 57.8297 85.4677 56.6954C86.1643 55.5613 86.5124 53.6509 86.5124 50.9645V47.6811C86.5124 47.0841 86.6618 46.6364 86.9602 46.338C87.2587 46.0195 87.6367 45.8603 88.0944 45.8603C88.5521 45.8603 88.9203 45.9996 89.1989 46.2783V61.4414C89.4376 61.4215 89.8157 61.4116 90.333 61.4116C90.8505 61.4116 91.1091 61.6305 91.1091 62.0683L90.9301 62.516C90.1739 62.516 89.5968 62.5259 89.1989 62.5457V64.0382C89.1989 66.0878 88.7312 67.6997 87.7959 68.8737C86.8806 70.0676 85.6469 70.6647 84.0947 70.6647C83.1793 70.6647 82.3635 70.3861 81.6471 69.8288C80.9507 69.2916 80.6025 68.436 80.6025 67.2618C80.6025 65.7496 81.1397 64.5457 82.2142 63.6501C83.2888 62.7547 84.7216 62.1278 86.5124 61.7697V57.1133C85.6767 58.6654 84.3335 59.4415 82.4829 59.4415C81.2093 59.4415 80.2044 59.0336 79.4682 58.2177C78.7319 57.4019 78.3638 56.2278 78.3638 54.6956V47.6811ZM82.1247 67.3515C82.1247 68.0478 82.3137 68.5752 82.6919 68.9334C83.0699 69.3115 83.5276 69.5005 84.0649 69.5005C84.6021 69.5005 85.0399 69.3413 85.3782 69.023C86.1343 68.3464 86.5124 66.3067 86.5124 62.9039C83.5873 63.5606 82.1247 65.0431 82.1247 67.3515ZM112.983 48.3975C113.639 49.5317 113.968 51.064 113.968 52.9942C113.968 54.9045 113.48 56.4567 112.505 57.6505C111.55 58.8247 110.296 59.4117 108.744 59.4117C107.829 59.4117 107.013 59.0932 106.297 58.4566C105.6 57.8198 105.252 56.8049 105.252 55.4119C105.252 52.1485 106.874 49.7109 110.117 48.099C109.6 47.3826 108.874 47.0244 107.938 47.0244C107.023 47.0244 106.148 47.4822 105.312 48.3975C104.476 49.3129 104.058 50.6859 104.058 52.5166V70.2766C103.859 70.5552 103.511 70.6945 103.013 70.6945C102.516 70.6945 102.118 70.5353 101.819 70.2168C101.521 69.9184 101.372 69.4707 101.372 68.8737V46.2783C101.571 45.9996 101.919 45.8603 102.416 45.8603C102.914 45.8603 103.312 46.0195 103.61 46.338C103.909 46.6364 104.058 47.0841 104.058 47.6811V48.3379C105.093 46.6862 106.456 45.8603 108.147 45.8603C109.859 45.8603 111.192 46.338 112.147 47.2931C114.237 46.6166 116.575 46.2783 119.162 46.2783C119.699 46.2783 119.967 46.4971 119.967 46.9349L119.788 47.3826C117.381 47.3826 115.112 47.7209 112.983 48.3975ZM108.685 58.2476C110.316 58.2476 111.132 56.6258 111.132 53.3822C111.132 51.671 110.993 50.3277 110.714 49.3527C108.088 50.7853 106.774 52.835 106.774 55.5015C106.774 56.3771 106.963 57.0536 107.341 57.5312C107.72 58.0087 108.167 58.2476 108.685 58.2476ZM130.29 52.636C130.707 52.636 130.916 52.9543 130.916 53.5911C130.916 55.0638 130.399 56.4069 129.365 57.6207C128.35 58.8346 126.798 59.4415 124.708 59.4415C122.619 59.4415 120.937 58.8844 119.664 57.77C118.41 56.6357 117.783 54.9842 117.783 52.8152C117.783 50.6262 118.341 48.9249 119.455 47.711C120.569 46.4773 121.992 45.8603 123.723 45.8603C124.977 45.8603 125.892 46.1987 126.469 46.8752C127.046 47.5318 127.335 48.3179 127.335 49.2333C127.335 50.7258 126.708 51.9694 125.454 52.9644C124.221 53.9394 122.639 54.427 120.709 54.427C120.888 55.7004 121.345 56.6656 122.082 57.3223C122.838 57.9591 123.823 58.2774 125.037 58.2774C126.27 58.2774 127.375 57.8198 128.35 56.9044C129.345 55.9691 129.842 54.606 129.842 52.8152C129.863 52.6957 130.011 52.636 130.29 52.636ZM120.619 53.0539V53.3226C121.853 53.1633 122.917 52.7753 123.813 52.1584C124.728 51.5416 125.186 50.6262 125.186 49.4123C125.186 48.6363 125.017 48.0493 124.678 47.6513C124.34 47.2334 123.862 47.0244 123.246 47.0244C122.31 47.0244 121.634 47.4822 121.216 48.3975C120.818 49.3129 120.619 50.8651 120.619 53.0539ZM129.909 43.2635C129.909 42.6666 130.057 42.2189 130.357 41.9204C130.655 41.6019 131.032 41.4428 131.49 41.4428C131.948 41.4428 132.316 41.5821 132.594 41.8607V46.2783H136.685C137.102 46.2783 137.371 46.3578 137.491 46.517C137.63 46.6763 137.7 46.9448 137.7 47.3229H132.594V54.8449C132.594 55.9393 132.904 56.7849 133.521 57.382C134.158 57.9789 134.884 58.2774 135.699 58.2774C136.934 58.2774 137.839 57.8198 138.416 56.9044C138.992 55.989 139.281 54.5065 139.281 52.457C139.321 52.3375 139.471 52.2778 139.729 52.2778C140.087 52.2778 140.266 52.8051 140.266 53.8598C140.266 55.4716 139.859 56.8049 139.042 57.8595C138.247 58.9142 137.012 59.4415 135.341 59.4415C133.67 59.4415 132.347 59.0037 131.372 58.1282C130.397 57.2526 129.909 55.9492 129.909 54.218V43.2635Z" fill="black"/>
<path d="M16.9145 46.8543C17.1479 46.8543 17.376 46.785 17.5701 46.6554C17.7641 46.5256 17.9154 46.3414 18.0048 46.1258C18.094 45.9101 18.1174 45.6728 18.0718 45.444C18.0263 45.215 17.914 45.0048 17.7489 44.8397C17.5839 44.6747 17.3736 44.5624 17.1447 44.5168C16.9157 44.4713 16.6785 44.4946 16.4629 44.5839C16.2472 44.6733 16.0629 44.8245 15.9333 45.0186C15.8036 45.2126 15.7344 45.4407 15.7344 45.6742C15.7344 45.8291 15.7648 45.9826 15.8241 46.1258C15.8835 46.2689 15.9704 46.3991 16.0799 46.5086C16.1896 46.6182 16.3197 46.7052 16.4629 46.7645C16.6061 46.8237 16.7595 46.8543 16.9145 46.8543Z" fill="black"/>
<path d="M10.6293 46.8543C10.8627 46.8543 11.0908 46.785 11.2849 46.6554C11.479 46.5256 11.6302 46.3414 11.7195 46.1258C11.8088 45.9101 11.8322 45.6728 11.7867 45.444C11.7411 45.215 11.6287 45.0048 11.4637 44.8397C11.2987 44.6747 11.0884 44.5624 10.8595 44.5168C10.6306 44.4713 10.3933 44.4946 10.1777 44.5839C9.96206 44.6733 9.77777 44.8245 9.6481 45.0186C9.51843 45.2126 9.44922 45.4407 9.44922 45.6742C9.44918 45.8291 9.47968 45.9826 9.53898 46.1258C9.59827 46.2689 9.6852 46.3991 9.79478 46.5086C9.90437 46.6182 10.0345 46.7052 10.1777 46.7645C10.3208 46.8237 10.4743 46.8543 10.6293 46.8543Z" fill="black"/>
<path d="M32.6019 49.5127C32.3686 49.5127 32.1404 49.582 31.9464 49.7116C31.7523 49.8412 31.6011 50.0255 31.5117 50.2412C31.4225 50.4567 31.399 50.6941 31.4445 50.9229C31.4901 51.1518 31.6024 51.3621 31.7675 51.5272C31.9325 51.6921 32.1427 51.8046 32.3715 51.8501C32.6005 51.8957 32.8377 51.8723 33.0533 51.7831C33.269 51.6938 33.4533 51.5427 33.5831 51.3485C33.7127 51.1545 33.782 50.9264 33.782 50.693C33.782 50.38 33.6578 50.0798 33.4364 49.8585C33.2151 49.6372 32.9149 49.5128 32.6019 49.5127Z" fill="black"/>
<path d="M26.3166 49.5127C26.0832 49.5128 25.8551 49.582 25.661 49.7117C25.467 49.8413 25.3159 50.0257 25.2266 50.2413C25.1372 50.457 25.1139 50.6942 25.1594 50.923C25.2051 51.152 25.3174 51.3622 25.4824 51.5272C25.6475 51.6923 25.8577 51.8046 26.0865 51.8501C26.3155 51.8957 26.5527 51.8723 26.7683 51.7831C26.9839 51.6938 27.1682 51.5425 27.298 51.3485C27.4276 51.1545 27.4969 50.9264 27.4969 50.693C27.497 50.538 27.4664 50.3845 27.4071 50.2413C27.3479 50.0982 27.2609 49.968 27.1513 49.8584C27.0417 49.7487 26.9115 49.6618 26.7683 49.6025C26.625 49.5431 26.4716 49.5127 26.3166 49.5127Z" fill="black"/>
<path d="M29.4606 53.5938C28.4578 53.5938 27.6445 53.8859 27.6445 54.6216C27.6445 55.3575 28.5914 56.4337 29.4606 56.4337C30.3299 56.4337 31.277 55.359 31.277 54.6216C31.277 53.8844 30.464 53.5938 29.4606 53.5938Z" fill="black"/>
<path d="M37.6893 41.4019C37.5221 41.3268 37.3367 41.3017 37.1555 41.3295C36.9743 41.3574 36.805 41.437 36.668 41.5589L32.8949 44.9127H26.0161L22.2424 41.5589C22.1055 41.437 21.9362 41.3573 21.755 41.3294C21.5738 41.3016 21.3884 41.3266 21.2211 41.4018C21.0539 41.4768 20.9118 41.5986 20.8123 41.7526C20.7127 41.9065 20.6597 42.086 20.6598 42.2693V54.2974C20.6639 55.0803 20.359 55.8332 19.8112 56.3925C19.2634 56.9517 18.517 57.2723 17.7342 57.2844C16.9514 57.2964 16.1955 56.9991 15.6307 56.4568C15.066 55.9147 14.738 55.1715 14.7181 54.389C15.9498 53.9627 17.0329 52.8308 17.0329 52.0009C17.0329 50.9595 15.5702 50.1157 13.7657 50.1157C11.9611 50.1157 10.4987 50.9595 10.4987 52.0009C10.4987 52.8308 11.5818 53.9639 12.8132 54.389C12.7933 55.1715 12.4654 55.9147 11.9006 56.4568C11.3358 56.9991 10.5799 57.2964 9.79709 57.2844C9.0143 57.2723 8.26788 56.9517 7.72007 56.3925C7.17226 55.8332 6.86733 55.0803 6.87155 54.2974V43.1681C6.87155 42.0257 5.92113 41.3185 5.0414 41.3185C2.70385 41.3185 0 45.3708 0 48.0145C0 50.2879 1.59347 51.2323 2.43635 51.4141C2.68282 51.4672 2.94034 51.4204 3.15225 51.2837C3.36414 51.1469 3.51307 50.9318 3.56626 50.6853C3.61945 50.4388 3.57256 50.1812 3.43588 49.9693C3.29921 49.7574 3.08395 49.6085 2.83747 49.5553C2.7051 49.5262 1.90159 49.2494 1.90159 48.0145C1.90159 45.994 4.07946 43.3654 4.97097 43.226V54.2974C4.97097 56.9844 7.15685 59.1703 9.8439 59.1703C10.6075 59.1704 11.3603 58.9907 12.0417 58.6461C12.723 58.3014 13.3138 57.8014 13.7661 57.1862C14.2186 57.8014 14.8093 58.3013 15.4908 58.6459C16.1721 58.9906 16.9249 59.1701 17.6884 59.17C20.3755 59.17 22.5617 56.9842 22.5617 54.2971V44.3869L25.0228 46.5744C25.1968 46.7292 25.4216 46.8146 25.6546 46.8146H33.2564C33.4892 46.8145 33.714 46.7291 33.8882 46.5744L36.3488 44.387V58.2194C36.3488 58.4716 36.449 58.7135 36.6274 58.8918C36.8057 59.0702 37.0475 59.1703 37.2998 59.1703C37.552 59.1703 37.7938 59.0702 37.9722 58.8918C38.1505 58.7135 38.2507 58.4716 38.2507 58.2194V42.2693C38.2507 42.086 38.1977 41.9066 38.0981 41.7527C37.9985 41.5989 37.8565 41.4771 37.6893 41.4019Z" fill="black"/>
<g clip-path="url(#clip1_99_62)">
<path fill-rule="evenodd" clip-rule="evenodd" d="M140.199 16.3249L140.169 11.0293L132.522 14.2596V11.7654H121.301V28.0322H132.522V16.3249H140.199Z" fill="black"/>
<path fill-rule="evenodd" clip-rule="evenodd" d="M39.5816 12.9021C40.8953 14.2882 41.7606 16.3477 41.7606 18.1547H37.1561C37.3617 16.0129 38.225 14.2039 39.5816 12.9021ZM44.1842 25.3414C40.404 25.3414 37.6474 23.2409 37.2792 20.0868H52.7749C52.0386 14.709 46.9408 11.3535 39.5816 11.3535C36.3749 11.3535 33.1211 12.025 30.537 13.2035C27.5378 14.5837 25.6055 17.2267 25.6055 19.9675C25.6055 22.7083 27.6199 25.3492 30.7837 26.8195C33.1701 27.9139 35.9246 28.4601 39.294 28.4601C44.5132 28.4601 48.5422 27.1151 52.9412 23.9201L51.8312 22.5752C49.123 24.4207 46.5739 25.3428 44.1842 25.3414Z" fill="black"/>
<path fill-rule="evenodd" clip-rule="evenodd" d="M71.195 18.4931C69.2627 16.9779 68.7712 16.3904 68.7712 15.5917C68.7712 14.4993 69.8404 13.7436 71.4005 13.7436C72.0185 13.7502 72.6306 13.8642 73.2094 14.0803V12.3576L72.7985 12.2714C70.6607 11.8094 70.2534 11.7683 68.4817 11.641C67.1679 11.5157 66.1321 11.4746 65.1123 11.4746C58.5755 11.4746 54.3019 13.448 54.3019 16.4336C54.3019 17.7785 55.1652 19.0393 57.1797 20.5448L58.4932 21.555C59.9733 22.6884 60.3844 23.2776 60.3844 24.1606C60.3844 25.171 59.2763 25.9227 57.7121 25.9227C56.606 25.9227 55.3628 25.7113 53.8906 25.2903V27.0992L54.3019 27.2226C55.9854 27.7297 56.563 27.855 57.4654 27.9803C59.0595 28.199 60.6665 28.3115 62.2756 28.3169C69.3861 28.3169 74.2373 26.089 74.2373 22.8118C74.2373 21.3806 73.4542 20.2491 71.195 18.4833" fill="black"/>
<path fill-rule="evenodd" clip-rule="evenodd" d="M88.3808 0H76.625V22.8623C76.625 25.0902 76.9532 25.9732 78.062 26.9402C79.1322 27.9074 81.1942 28.4124 84.0644 28.4124C86.1716 28.3975 88.269 28.1261 90.3113 27.604V25.5111C89.6842 25.697 89.0343 25.796 88.3808 25.8049V0Z" fill="black"/>
<path fill-rule="evenodd" clip-rule="evenodd" d="M105.476 12.9021C106.79 14.2882 107.655 16.3477 107.655 18.1547H103.051C103.247 16.0129 104.119 14.2039 105.476 12.9021ZM110.081 25.3414C106.297 25.3414 103.544 23.2409 103.172 20.0868H118.671C117.929 14.709 112.833 11.3535 105.476 11.3535C102.268 11.3535 99.0157 12.025 96.4338 13.2035C93.4307 14.5837 91.5 17.2267 91.5 19.9675C91.5 22.7083 93.513 25.3492 96.6798 26.8195C99.0648 27.9139 101.815 28.4601 105.189 28.4601C110.408 28.4601 114.436 27.1151 118.834 23.9201L117.724 22.5752C115.013 24.426 112.468 25.3507 110.088 25.3492" fill="black"/>
<path fill-rule="evenodd" clip-rule="evenodd" d="M27.6647 0H0V5.39745L7.6449 3.26744V28.0327H19.9766V3.22633L27.6647 5.39745V0Z" fill="black"/>
</g>
</g>
<defs>
<clipPath id="clip0_99_62">
<rect width="140.335" height="70.6943" fill="white"/>
</clipPath>
<clipPath id="clip1_99_62">
<rect width="140.335" height="28.5921" fill="white"/>
</clipPath>
</defs>
</svg>
