<svg width="90" height="90" viewBox="0 0 90 90" fill="none" xmlns="http://www.w3.org/2000/svg">
<g id="Frame 10">
<path id="Vector" d="M24.0097 1.31594L64.0367 1.29073C64.6371 1.29126 65.2568 1.26132 65.8535 1.34096C69.8887 1.8795 73.6924 5.23076 73.9772 9.44591C74.0791 10.954 73.9971 12.5222 73.9952 14.0361L73.9946 76.9145C73.9963 77.9875 74.0783 79.1275 73.9683 80.1914C73.5089 84.6408 69.9157 88.0412 65.4425 88.29C64.55 88.3696 63.6262 88.3257 62.7307 88.3259L26.1561 88.3184C23.6651 88.3109 21.2983 88.1459 19.213 86.5623C15.5403 83.7731 15.4618 80.9844 15.4635 76.9338L15.4617 13.9432C15.4493 10.6839 15.0741 7.89389 17.1909 5.10279C18.9003 2.84847 21.2465 1.68663 24.0097 1.31594ZM19.141 13.903C18.3247 13.9085 17.3677 13.8172 16.5711 13.9631L16.5914 72.1287L70.4414 72.125L72.8223 72.1229L72.8039 15.2135C72.8015 14.8261 72.8506 14.336 72.7622 13.9608C71.1351 13.8125 69.4384 13.9071 67.8029 13.9064L19.8365 13.9028C19.6436 13.9028 19.3228 13.9458 19.141 13.903ZM44.065 74.7498C40.1879 75.2082 38.1695 79.5491 40.1468 82.8999L40.1992 82.9898C40.9056 84.1826 42.1866 85.1008 43.5112 85.4696L43.6078 85.4981C44.2084 85.6704 44.8357 85.6162 45.4491 85.564C50.2825 84.6404 52.0518 78.3509 47.6565 75.4843C46.7948 74.9221 45.1071 74.5066 44.065 74.7498ZM37.4425 6.8599C36.6501 7.28145 36.2717 7.63694 36.7931 8.46391C37.3324 9.31922 38.9157 8.98663 39.7645 8.98738L49.5625 8.99226C50.3634 8.9932 51.2213 9.06658 52.0136 8.96654C52.3227 8.8819 52.5186 8.78843 52.6847 8.50295C53.6748 6.80134 51.6384 6.86628 50.6504 6.86778L37.4425 6.8599Z" fill="black"/>
<path id="Vector_2" d="M44.0738 76.6245C44.4807 76.589 44.937 76.5714 45.3409 76.6386L45.4192 76.6528C46.505 76.83 47.5055 77.48 48.0046 78.4789L48.0523 78.5769C48.4085 79.2961 48.5495 80.3263 48.3006 81.1006L48.2738 81.1786C47.8695 82.3902 46.8687 83.2826 45.6183 83.5702C45.1902 83.6368 44.7504 83.6569 44.3197 83.604L44.2168 83.5908C40.2122 83.1178 40.2466 77.3578 44.0738 76.6245Z" fill="black"/>
<path id="Vector_3" d="M29.5792 23.4237C31.4045 23.3497 31.9229 24.1194 33.2065 25.2756L37.2925 29.045C40.11 31.6261 38.8025 31.0623 42.1808 30.7984C42.7692 30.7524 43.3773 30.7795 43.9689 30.777L46.9297 30.7755C47.5401 30.7828 49.6105 31.205 49.7042 31.1924C50.115 31.1368 55.281 26.2126 55.9999 25.5723C57.4581 24.2735 59.1274 22.4186 61.3209 23.9088C64.0135 25.7383 62.811 30.6676 62.5 33.3801L62.0145 37.7604C61.6368 40.7624 61.5991 40.2727 62.3112 43.287L62.9415 46.2105C63.1716 46.2501 63.4298 46.2018 63.662 46.181L65.2386 45.9926C65.516 45.9605 65.8281 45.9051 66.1016 45.9853C67.1354 46.2884 67.3864 47.7612 65.2116 47.9628C64.3476 48.0429 63.2436 48.0405 62.4536 48.4215C62.4465 48.5887 62.4392 48.82 62.241 48.6379L62.2012 48.5972C60.5561 49.255 57.4802 48.9448 55.6566 49.1067C55.5667 49.5439 55.5894 50.0155 55.595 50.4596C56.3156 50.5987 57.1465 50.5308 57.8791 50.5319L62.1032 50.5202L62.0567 51.1323C62.2132 51.2678 62.6676 51.2487 62.8771 51.2654L64.6521 51.4238C65.2013 51.4668 66.3392 51.4161 66.7634 51.7838C67.2563 52.2108 66.9821 53.3566 66.2506 53.3476C65.2397 53.3352 64.1988 53.1239 63.19 53.037L60.14 52.908C58.584 52.8089 57.0694 52.6248 55.5038 52.6064C55.3334 52.8791 55.3552 53.381 55.3385 53.7003L59.0752 54.2679C59.5793 54.3484 60.1366 54.403 60.5296 54.7561L60.5216 54.9907C60.2916 55.7778 59.6505 56.4909 59.1227 57.0936C55.4552 61.2811 50.5867 62.5347 45.2953 62.5345C39.1738 62.5343 34.6247 61.7635 30.1601 56.916C29.9013 56.635 28.5508 55.0785 28.8684 54.6714C29.204 54.241 33.3797 53.8694 34.1162 53.8245L34.0596 52.6826C33.1476 52.3709 30.673 52.8221 29.6987 52.9268C28.7254 53.0315 27.7301 52.9257 26.7481 52.9925C25.6944 53.0642 24.6545 53.309 23.5926 53.3373C22.5261 53.3656 22.1093 51.9435 23.2037 51.5998C23.6493 51.46 24.1816 51.4472 24.647 51.4009L27.3543 51.1385C27.5255 51.1201 27.8091 51.1338 27.9151 51.0022L27.6191 50.7079C27.8609 50.3919 28.4872 50.542 28.8508 50.5403L31.6151 50.5287C32.3585 50.5217 33.0901 50.5632 33.8013 50.3155L33.8246 49.084L28.0564 48.7383C27.2439 48.6345 26.4836 48.3149 25.682 48.1561C24.9458 48.0103 24.1266 48.0281 23.4118 47.8263C22.3069 47.5147 22.4186 45.8482 23.98 45.9288C24.7978 45.971 25.6082 46.1153 26.4143 46.2518L27.1696 43.4766C27.9162 40.6986 27.9748 40.8444 27.5517 38.0758L26.587 29.9626C26.2349 27.3196 26.2233 23.8841 29.5792 23.4237ZM42.6995 47.1868C40.1145 47.6253 44.1964 50.7545 43.845 52.0863C43.5428 53.2311 41.9568 54.6065 40.7843 54.8469L40.6916 54.8675C39.8632 55.0443 38.9913 54.9192 38.1552 55.0305C37.3226 56.3208 40.796 56.7936 41.9835 56.4228C43.1605 56.0553 43.9665 54.93 44.769 54.0691L46.0097 55.4402C47.4888 56.6985 50.1479 57.3398 51.4732 55.5975L51.6556 55.2838C51.3487 54.4282 49.4645 55.0173 48.7567 54.9659C47.4446 54.8707 45.1744 52.7872 45.7595 51.3069C46.4367 49.5938 49.5553 47.1572 45.7005 47.1467L42.6995 47.1868ZM36.2685 39.4395C32.8429 39.8481 33.1341 43.5884 34.9329 42.1034C35.6669 41.4974 36.1566 41.2494 37.1369 41.4354L37.2268 41.472C37.5711 41.6139 37.849 41.7797 38.1186 42.0381C40.4116 44.2375 40.362 39.1501 36.2685 39.4395Z" fill="black"/>
<path id="Vector_4" d="M52.6215 39.4424L53.1352 39.4329C54.0168 39.4963 54.7921 39.7932 55.3698 40.4864C56.0615 41.3162 55.8466 43.4541 54.4569 42.0284C53.9864 41.5459 53.6249 41.3845 52.9676 41.3075C52.3122 41.3597 51.2341 41.6544 51.0261 42.3858L50.6665 42.5784C48.9332 42.7267 49.5818 39.7362 52.6215 39.4424Z" fill="white"/>
<path id="Vector_5" d="M29.3676 26.6584C30.1346 27.315 30.7851 28.0761 31.464 28.8206L35.0599 32.7631C34.4828 32.9583 33.936 33.2502 33.3914 33.5204C32.3236 34.0674 31.2646 34.6582 30.1237 35.0381L29.7464 32.051C29.5045 30.2604 29.1265 28.4697 29.3676 26.6584Z" fill="white"/>
<path id="Vector_6" d="M59.9838 26.6609L60.1101 26.6821C60.7572 27.4456 59.514 33.7971 59.2948 35.1417L56.2375 33.6666L54.5625 32.9119C55.6862 31.3051 58.5265 28.0684 59.9838 26.6609Z" fill="white"/>
</g>
</svg>
