<svg width="90" height="90" viewBox="0 0 90 90" fill="none" xmlns="http://www.w3.org/2000/svg">
<g id="Frame 11">
<path id="Vector" d="M25.8679 11.9049C26.4925 11.8163 27.2814 12.5346 27.4517 13.0815C27.6135 13.6008 27.5218 14.3859 27.5218 14.9375L27.5102 26.8698C27.4692 27.7049 26.9584 27.9768 26.4053 28.5308L21.9336 33.0616C21.3505 33.6586 20.8386 34.3996 19.9804 34.5794C19.7995 34.5731 19.6347 34.5452 19.4573 34.5111L19.3459 34.4902C18.9947 34.4133 18.6753 34.0746 18.5114 33.7687C17.865 32.5621 19.2688 31.6509 19.9985 30.9084L24.4212 26.4462C24.7753 26.1056 24.7075 26.0574 24.7044 25.5874L24.692 14.0915C24.6927 13.0429 24.7792 12.3888 25.8679 11.9049Z" fill="black"/>
<path id="Vector_2" d="M79.6656 3.02032C81.318 2.80388 81.9805 4.3575 81.9814 5.74093L81.9839 20.1704C81.9837 21.4147 82.0964 22.7682 81.9169 23.9963C81.3854 27.6321 78.7402 32.1117 75.1761 33.488C74.48 33.7567 74.4306 33.5324 74.4268 34.3076L74.4115 49.5883C74.3098 52.2626 73.4073 55.1036 72.1714 57.4456C71.5934 58.5407 71.4554 58.111 71.4509 59.5151L71.46 65.8954C71.4593 67.0948 71.3531 67.7523 71.7694 68.8784L76.2247 79.9634C78.6469 80.2925 80.7286 79.3895 82.6103 81.6334C83.3147 82.4733 83.3692 83.6569 83.2545 84.6938C82.9772 87.1983 80.7592 86.9339 78.9084 86.9355L69.8941 86.9357C66.6889 86.9326 65.8484 86.9592 64.6936 83.4786L60.7605 71.7425C59.8638 69.3364 59.0491 66.9679 57.5806 64.8348L55.8556 63.8035C58.9584 68.1258 56.9966 73.1474 54.8549 78.1554C54.7152 78.4818 54.2745 79.5757 54.0074 79.7862L53.9209 79.8497C55.1473 79.9548 56.47 79.8435 57.7059 79.8419C60.4142 79.8385 63.3819 81.3025 62.8886 84.3992L62.8227 84.7553C62.5673 86.0043 61.5029 86.8638 60.2503 86.9253L36.2436 86.9344C32.8431 86.9332 30.359 87.0248 27.0944 85.6559C17.8799 81.7915 11.5619 72.1421 10.8665 62.2599C10.3147 54.4213 13.1362 47.3034 17.2429 40.8091C17.9519 39.6877 18.6202 38.4074 19.9233 37.8955C21.7006 37.1973 23.6831 38.1874 24.3411 39.9496L24.3749 40.0431C25.1003 42.0105 23.9867 43.324 22.9447 44.8475C19.117 50.4449 17.3888 57.0358 18.2825 63.8035C18.5729 65.5101 18.9543 67.1998 19.6264 68.802C20.4656 70.8027 21.5 72.379 22.7166 74.1216L22.6983 61.182C22.7035 60.5324 22.6746 59.8418 22.7842 59.2007L23.0659 57.0361C24.8687 45.9444 32.4098 35.1522 42.166 29.4676C42.5063 29.2692 42.8742 29.1618 43.2207 28.9773L43.2123 26.9408C42.5077 26.8731 41.5763 26.9489 40.9815 26.5278C40.3711 26.0957 40.1981 25.0359 40.7078 24.4629C41.1988 23.911 42.2183 23.9408 42.9011 23.8932L42.8866 23.6458C42.6517 21.0425 40.58 16.8801 38.4932 15.1708C38.1107 15.659 37.629 16.3621 36.9584 16.4194C36.4027 16.4671 35.426 15.8108 35.3951 15.2188C35.3498 14.3548 35.8442 13.7305 36.3766 13.1061L35.495 12.4736C33.4855 11.1986 31.15 10.3399 28.7828 10.0826C25.7203 9.74969 26.7115 11.9655 25.3218 10.1546C22.8667 9.40369 17.8243 11.3907 15.8163 13.2188C16.317 13.7295 16.6587 14.3264 16.8561 15.0119C16.2886 16.9797 14.7722 16.5399 13.7112 15.1233C11.1546 17.4484 9.81409 20.524 9.15247 23.8389L10.3033 23.9394C11.4912 24.1527 12.1004 25.5189 11.1677 26.391C10.5688 26.9512 9.59283 26.7927 8.84314 26.7652C8.78203 29.858 9.69744 33.1653 11.461 35.7191C11.8006 36.2108 12.5556 36.8387 12.6897 37.4065C12.936 38.4511 11.626 39.9246 10.6876 39.2587L10.6405 39.2236C10.1029 38.8528 9.74579 38.284 9.36941 37.7627C7.18208 34.735 6.00934 30.6053 6.00006 26.877C5.97206 15.6232 15.177 6.9754 26.2886 6.98643C35.7731 6.99587 44.4302 14.0992 45.7831 23.5878C45.9837 24.9944 45.9731 26.3849 45.9704 27.801L45.9997 27.7973C47.1532 27.0641 50.6051 26.3295 51.9206 26.1043C52.4138 26.02 52.9572 26.0511 53.4304 25.9043L53.4464 5.86046C53.4759 2.89831 55.324 2.19075 57.6284 4.12415L64.0659 9.64274C64.9204 10.4016 64.8482 10.1111 66.0963 10.1095L70.4927 10.1009C70.7565 9.97993 71.6842 9.0674 72.0014 8.80318L77.0307 4.62576C77.8756 3.92893 78.5441 3.2048 79.6656 3.02032Z" fill="black"/>
</g>
</svg>
