<svg width="90" height="90" viewBox="0 0 90 90" fill="none" xmlns="http://www.w3.org/2000/svg">
<g id="SM">
<path id="Vector" d="M75.0816 71.0402L67.3054 67.7637L66.3896 68.6199C61.4739 72.7687 55.0306 75.1062 48.6644 75.6066C40.581 76.2417 30.119 74.0861 24.2373 68.3518C23.7373 67.8642 23.7906 67.7124 23.161 67.96L16.2736 70.8282C15.1882 71.3167 14.107 71.9014 12.9942 72.3175C11.1352 73.0125 10.153 71.0391 11.4245 70.2355C12.2456 69.7167 13.2599 69.3621 14.1434 68.9434L21.9239 65.469L21.1841 64.0643C20.3392 62.4745 20.656 62.8919 19.0095 63.1436L14.5549 63.7335L7.47625 65.2327C6.86277 65.3802 5.72482 65.7894 5.12039 65.5668C4.07232 65.1808 3.89565 63.6014 4.97266 63.1202C5.82773 62.7382 6.92196 62.6209 7.83842 62.4217L12.4346 61.4273C14.0491 61.136 15.6974 60.9664 17.2775 60.5175C16.5037 59.1865 15.3112 58.982 13.8829 58.6823L6.72961 57.1458C6.02029 56.9817 4.78848 56.8529 4.28675 56.3066C3.51891 55.4707 4.42367 54.1676 5.46291 54.2171C6.6086 54.2716 7.84482 54.7276 8.97019 54.982C11.9172 55.6485 14.9285 56.4155 17.9316 56.7355L17.1353 51.0307C16.9123 49.7397 16.9286 48.3656 16.931 47.0581L16.9383 41.6463C16.9407 39.2797 17.0015 38.9327 16.3878 36.6407L15.6906 33.8014C14.8994 30.3803 14.4259 26.9348 14.4042 23.4287C14.3855 20.4111 13.9491 14.5384 17.9053 14.0152C23.6989 13.659 31.1337 19.6434 34.3999 23.8705C35.0679 24.7351 35.8256 25.6697 36.2478 26.6844L36.2869 26.7796C42.1436 25.688 48.6423 25.5195 54.5189 26.7573C57.6371 20.9831 64.4098 15.5238 70.7674 14.2327C74.9463 13.3841 75.8576 15.2397 76.2775 18.8901C76.9316 24.5783 76.1988 30.7645 74.5424 36.2631C73.7913 38.7565 73.8814 38.5681 73.8849 41.2137L73.8887 46.9101C73.8874 47.8975 73.9315 49.0129 73.7403 49.9779L72.9764 56.5946C74.5479 56.5153 76.1065 56.1635 77.6409 55.8329L82.3073 54.8202C83.2255 54.613 84.1641 54.3653 85.0967 54.2383C86.728 54.0166 87.5808 55.9798 85.8782 56.6849C85.0958 57.0089 84.1281 57.0992 83.2989 57.2798L78.8758 58.2809C77.9286 58.48 73.2249 58.9255 73.7564 60.5389C74.1316 60.8898 74.9873 60.9066 75.4891 60.9772L83.0732 62.4263C83.9324 62.6052 84.939 62.7028 85.7435 63.0431C86.8245 63.5003 86.9523 65.3076 85.7241 65.5958C85.1724 65.7252 84.447 65.4462 83.9139 65.3076L74.9547 63.4939C73.4989 63.2589 72.0255 63.1882 70.6033 62.7797C70.0369 63.6964 69.3682 64.5678 68.8884 65.5317C71.4293 66.813 74.1698 67.7864 76.7686 68.9606C77.8995 69.4716 81.2727 70.5457 79.3967 72.3488C78.7886 72.9334 77.7272 72.2883 77.1296 72.0035L75.0816 71.0402ZM25.8618 40.7398C21.4409 41.2952 21.4586 48.6214 24.8841 49.306C25.43 49.415 26.0958 49.3475 26.657 49.3457L35.3282 49.3234C36.3507 49.321 37.414 49.3724 38.4307 49.2635C41.0496 48.9824 39.8533 44.1601 44.6973 43.5161L44.8252 43.4978C48.3937 43.0106 49.8701 45.5997 50.9566 48.3564C51.5522 49.8671 52.8496 49.334 54.4008 49.3344L59.1551 49.3322L63.6776 49.3316C64.3626 49.3305 65.2201 49.4226 65.8837 49.2664C68.8775 48.5624 69.0279 43.6667 66.9998 41.692C66.0345 40.7522 65.3013 40.7522 64.0547 40.7533L25.8618 40.7398ZM44.7338 49.1392C39.428 49.9939 39.0522 56.8366 43.2482 58.2451C43.5492 58.346 43.8562 58.3639 44.1327 58.53C44.1517 63.6189 44.2091 64.49 38.9406 64.8456C37.5194 64.9416 37.4597 66.8353 40.9686 66.707C42.3916 66.6549 43.6901 66.1105 44.6635 65.0543L45.3272 64.2904L45.9126 64.9438L46.6257 65.6198C47.7987 66.6529 49.6352 66.875 51.1349 66.7671C52.8649 66.6425 53.854 64.6071 51.2996 64.6992C48.2914 64.8076 46.6177 63.8521 46.5852 60.8257L46.5698 58.5991C47.9672 58.0728 48.8037 57.8127 49.6729 56.3936C51.8864 52.7803 48.9376 48.9118 44.7338 49.1392ZM28.8088 58.1552L22.4987 58.1581C21.5529 58.1592 20.3915 58.034 19.4726 58.2241C18.1273 58.5024 18.2803 60.4 19.5539 60.4044L21.4221 60.2856L31.2744 60.2438C31.8642 59.0176 31.8477 58.1311 30.325 58.1367L28.8088 58.1552ZM60.3185 58.1632C58.7355 58.2703 58.6147 59.4301 59.4945 60.1613C59.8209 60.4324 69.8521 60.2401 71.094 60.3194C71.4253 60.3083 71.7091 60.3207 71.9337 60.0369C74.0342 57.3825 67.8652 58.1556 66.788 58.1559L60.3185 58.1632Z" fill="black"/>
</g>
</svg>
